<?xml version="1.0" standalone="no"?>
<!DOCTYPE svg PUBLIC "-//W3C//DTD SVG 20010904//EN"
 "http://www.w3.org/TR/2001/REC-SVG-20010904/DTD/svg10.dtd">
<svg version="1.0" xmlns="http://www.w3.org/2000/svg"
 width="500.000000pt" height="500.000000pt" viewBox="0 0 500.000000 500.000000"
 preserveAspectRatio="xMidYMid meet">
<metadata>
Created by potrace 1.11, written by Peter Selinger 2001-2013
</metadata>
<g transform="translate(0.000000,500.000000) scale(0.100000,-0.100000)"
fill="#000000" stroke="none">
<path d="M300 4831 c-35 -6 -95 -40 -86 -48 3 -3 15 2 28 11 29 21 44 21 24 0
-9 -8 -13 -20 -10 -26 4 -6 2 -8 -4 -4 -16 10 -40 -20 -48 -58 -7 -41 -42 -82
-56 -68 -7 7 -6 16 2 29 10 16 11 16 6 1 -3 -10 -1 -18 4 -18 6 0 10 9 10 21
0 11 5 17 10 14 6 -3 10 -2 10 3 0 17 -25 20 -44 7 -15 -11 -17 -22 -11 -57
10 -63 16 -82 24 -70 4 7 12 8 21 2 12 -8 12 -10 1 -10 -8 0 -11 -6 -7 -16 4
-12 1 -14 -14 -9 -19 6 -20 2 -20 -75 0 -55 3 -79 11 -75 5 4 19 -1 30 -11 19
-17 19 -17 3 14 -11 23 -12 36 -5 51 7 13 8 22 1 26 -10 6 -15 -8 -10 -30 1
-5 -4 -5 -11 2 -28 27 4 49 66 45 17 -1 15 2 -10 23 -16 14 -22 23 -12 19 14
-5 17 -1 15 27 -4 53 16 45 22 -8 5 -47 6 -49 60 -75 30 -14 57 -24 60 -22 2
3 -1 8 -8 13 -8 5 -6 12 8 24 25 21 31 21 23 1 -5 -14 -3 -15 14 -6 24 13 49
42 36 42 -5 0 -14 -5 -19 -10 -7 -7 -19 -7 -35 -1 l-24 10 25 1 c45 1 64 25
65 79 1 28 -2 48 -6 45 -10 -6 -30 31 -22 40 11 11 24 7 17 -6 -4 -7 -3 -8 5
-4 6 4 9 11 6 16 -9 15 15 22 33 9 9 -7 7 -2 -5 11 -22 24 -23 24 -39 5 -8
-11 -13 -15 -9 -8 3 7 -4 17 -16 24 -19 10 -21 9 -16 -5 10 -27 -9 -18 -21 10
-9 18 -9 30 -1 42 10 16 10 16 5 0 -3 -12 -1 -15 9 -12 7 3 18 -4 25 -15 6
-12 16 -21 22 -21 7 0 6 5 -2 15 -24 29 15 16 56 -18 21 -19 45 -32 53 -29 8
2 11 0 7 -6 -3 -5 9 -17 28 -26 37 -18 111 -22 101 -6 -3 5 0 7 8 4 8 -3 17 2
20 10 8 21 -17 21 -37 1 -18 -19 -32 -19 -39 -1 -4 10 2 16 15 18 12 2 23 9
26 16 3 11 0 12 -17 2 -12 -6 -32 -8 -44 -4 l-22 7 23 8 c12 5 22 13 22 19 0
12 -13 13 -24 3 -4 -4 -25 -13 -47 -19 -39 -12 -39 -12 -39 15 0 15 3 30 6 34
8 8 34 -3 34 -14 0 -4 -7 -6 -15 -3 -8 4 -15 1 -15 -5 0 -14 36 -14 63 1 43
22 93 20 125 -7 33 -28 51 -33 32 -10 -11 13 7 15 153 15 158 0 165 -1 170
-21 3 -12 0 -22 -8 -25 -8 -3 -11 -12 -9 -19 4 -8 -7 -20 -25 -30 -17 -8 -31
-21 -31 -29 0 -7 -11 -19 -25 -26 -14 -7 -25 -18 -25 -24 0 -6 -18 -22 -40
-36 -28 -16 -37 -27 -30 -34 7 -7 13 -7 18 -1 4 6 16 17 27 25 17 12 16 10 -2
-11 -13 -14 -23 -31 -23 -37 0 -15 -15 -15 -42 -1 -15 8 -19 8 -14 0 4 -6 2
-11 -3 -11 -6 0 -11 -7 -11 -15 0 -8 -4 -15 -9 -15 -5 0 -11 -9 -14 -21 -3
-11 -15 -23 -26 -26 -11 -3 -19 -9 -16 -12 2 -4 -7 -24 -20 -44 -14 -20 -25
-42 -25 -50 0 -8 -11 -18 -25 -21 -14 -4 -25 -13 -25 -20 0 -8 -9 -16 -21 -19
-13 -4 -18 -10 -13 -18 4 -7 3 -10 -3 -6 -11 7 -83 -65 -83 -83 0 -6 -5 -10
-11 -10 -21 0 -61 -67 -90 -152 -7 -21 -17 -38 -21 -38 -4 0 -8 -10 -8 -22 0
-19 -2 -20 -10 -8 -10 15 -11 14 -15 -29 -1 -13 -9 -27 -16 -32 -10 -6 -11 -9
-1 -9 10 0 10 -4 0 -22 -7 -13 -16 -25 -19 -28 -3 -3 -8 -13 -12 -23 -4 -10
-11 -15 -17 -12 -5 3 -10 0 -10 -9 0 -8 6 -17 13 -19 7 -3 4 -6 -6 -6 -14 -1
-16 -5 -9 -17 12 -22 -8 -64 -31 -64 -11 0 -15 -4 -11 -12 4 -6 9 -27 11 -46
2 -19 4 -37 5 -41 1 -3 -4 -18 -10 -33 -13 -31 -5 -101 11 -91 6 4 7 1 2 -8
-14 -22 -14 -99 0 -99 6 0 17 -12 24 -27 11 -24 10 -29 -9 -45 -15 -12 -18
-18 -8 -18 8 0 21 -11 28 -25 7 -14 22 -25 33 -25 19 0 19 -1 3 -19 -10 -11
-15 -25 -11 -30 10 -17 25 -13 19 4 -7 19 10 20 25 2 8 -10 7 -17 -1 -25 -9
-9 -9 -12 2 -12 19 -1 60 -35 60 -49 0 -6 5 -11 11 -11 14 0 40 -26 32 -33 -3
-3 10 -10 28 -16 19 -5 28 -10 22 -10 -21 -2 -14 -27 9 -37 27 -12 71 -7 63 7
-4 5 -1 9 4 9 6 0 11 -4 11 -9 0 -5 7 -17 16 -26 13 -13 19 -13 32 -3 10 9 13
9 9 1 -4 -6 -2 -15 4 -19 6 -3 15 -1 19 6 5 8 9 7 14 -6 6 -16 7 -16 26 1 10
9 24 14 29 10 6 -3 11 -1 11 5 0 6 4 9 9 5 5 -3 13 -1 16 5 4 7 11 8 18 2 18
-14 117 8 117 26 0 9 6 12 17 8 9 -4 36 -10 60 -13 27 -3 43 -11 43 -19 0 -8
6 -14 13 -14 18 0 19 -37 1 -44 -11 -4 -13 -13 -9 -27 9 -27 -15 -75 -27 -57
-6 9 -7 6 -4 -7 4 -15 -4 -28 -31 -49 -27 -22 -35 -25 -30 -11 6 15 5 16 -8 5
-8 -7 -13 -16 -10 -20 3 -5 -52 -9 -121 -9 -70 -1 -135 -6 -146 -12 -31 -17
-15 -21 37 -9 32 7 58 7 83 0 52 -14 107 -12 149 5 44 19 99 19 199 1 69 -13
207 -14 494 -7 8 1 52 -2 98 -5 88 -7 152 1 152 17 0 6 -38 10 -97 9 -259 -3
-404 0 -398 10 3 6 -1 10 -10 10 -11 0 -15 5 -11 15 3 8 1 15 -5 15 -5 0 -9 6
-8 13 3 26 -2 36 -16 31 -19 -8 -19 0 -1 19 12 12 12 23 1 75 -11 55 -11 61 4
64 9 2 29 -3 45 -11 16 -7 52 -15 80 -16 28 -1 53 -3 56 -5 5 -2 124 0 206 4
22 2 54 11 70 22 16 11 53 31 81 44 33 16 57 35 65 51 6 15 17 25 24 22 7 -2
15 5 19 16 7 24 16 26 33 9 6 -6 15 -8 19 -4 4 4 3 10 -3 14 -6 4 -10 17 -10
29 0 17 4 20 17 12 26 -13 33 -11 19 6 -8 10 -9 15 -2 15 6 0 9 7 6 15 -5 11
-2 13 10 9 9 -3 16 -2 16 4 0 6 3 18 7 27 5 15 3 16 -15 6 -26 -14 -29 0 -6
23 8 9 12 16 8 16 -5 0 -3 5 4 12 7 7 12 23 12 36 0 13 4 20 10 17 6 -4 7 6 3
26 -4 21 -3 30 4 26 7 -4 6 11 -3 40 -8 25 -14 76 -15 112 -1 115 -10 154 -39
162 l-25 6 25 5 25 5 -24 8 c-23 8 -24 9 -5 16 18 7 18 7 0 14 -11 5 -21 3
-27 -6 -6 -9 -9 -10 -9 -2 0 6 10 19 22 27 17 12 18 16 6 16 -8 0 -18 9 -21
20 -3 11 -1 20 4 20 5 0 9 4 9 10 0 5 -8 7 -17 3 -15 -5 -16 -3 -5 8 16 18 15
29 -4 29 -8 0 -13 4 -9 9 3 5 -3 16 -12 23 -23 17 -45 56 -38 67 3 5 -2 11
-10 15 -8 3 -15 13 -15 21 0 9 5 13 10 10 6 -4 7 -11 4 -17 -4 -7 -2 -8 4 -4
15 9 4 36 -14 36 -13 0 -19 13 -15 34 1 5 -5 6 -13 3 -11 -4 -13 -1 -9 10 5
12 3 14 -8 8 -11 -7 -11 -5 1 10 9 11 10 16 3 11 -8 -4 -13 -2 -13 4 0 6 -5 8
-10 5 -5 -3 -10 -2 -10 4 0 5 -9 12 -19 16 -12 4 -18 12 -14 21 3 8 -1 14 -8
14 -12 0 -12 2 -1 9 12 7 12 12 1 29 -10 17 -21 20 -51 18 -31 -3 -36 -1 -27
10 6 8 20 14 31 14 11 0 16 4 12 11 -3 6 -17 8 -30 5 -14 -4 -24 -2 -24 4 0 5
-7 10 -15 10 -18 0 -20 17 -3 22 9 3 8 10 -5 22 -10 10 -24 15 -34 12 -13 -5
-14 -4 -3 9 10 12 10 15 -4 15 -10 0 -14 5 -11 10 3 6 1 10 -4 10 -6 0 -11 10
-11 21 0 19 -2 20 -17 8 -11 -9 -14 -10 -9 -2 7 13 -10 54 -22 51 -4 0 -18 4
-32 10 -22 9 -22 11 -5 12 14 1 9 6 -19 20 -48 24 -67 40 -61 51 3 4 -8 20
-25 35 -16 15 -30 33 -30 39 0 6 -11 18 -25 25 -19 10 -22 16 -13 22 9 6 10
10 2 16 -6 4 -14 20 -18 35 -7 28 -26 29 -26 1 0 -8 -4 -14 -8 -14 -17 0 -21
13 -10 34 10 19 9 19 -4 8 -11 -9 -18 -10 -23 -2 -3 5 -1 10 5 10 6 0 9 4 6 9
-3 5 77 9 186 10 179 2 208 4 197 16 -3 2 -94 7 -204 10 -159 4 -201 8 -207
20 -5 8 -15 12 -23 8 -9 -3 -21 -1 -28 5 -6 5 -59 12 -117 14 -57 3 -96 1 -85
-3 19 -7 19 -8 -2 -8 -13 -1 -23 4 -23 10 0 6 -8 8 -17 6 -10 -3 -53 -13 -95
-22 l-76 -18 -94 27 c-111 31 -142 32 -232 6 -68 -19 -69 -19 -127 0 -32 11
-60 19 -61 19 -2 -1 -19 -5 -38 -8z m765 -41 c3 -5 -1 -10 -9 -10 -9 0 -16 5
-16 10 0 6 4 10 9 10 6 0 13 -4 16 -10z m-98 -6 c-3 -3 -12 -4 -19 -1 -8 3 -5
6 6 6 11 1 17 -2 13 -5z m-677 -14 c0 -5 -4 -10 -10 -10 -5 0 -10 5 -10 10 0
6 5 10 10 10 6 0 10 -4 10 -10z m-7 -68 c-25 -50 -39 -69 -44 -60 -5 7 -6 21
-3 31 4 12 0 17 -13 18 -10 0 -13 3 -5 6 6 2 12 13 12 24 0 24 29 37 41 18 7
-11 11 -10 23 6 9 11 16 24 16 29 0 5 2 7 5 5 2 -3 -12 -38 -32 -77z m321 -18
c30 -29 19 -33 -14 -4 -13 11 -18 20 -12 20 6 0 18 -7 26 -16z m493 -16 c-3
-7 -5 -2 -5 12 0 14 2 19 5 13 2 -7 2 -19 0 -25z m-57 -113 c-7 -8 -17 -12
-22 -9 -6 4 -5 10 3 15 22 14 33 10 19 -6z m-170 -95 c0 -5 -2 -10 -4 -10 -3
0 -8 5 -11 10 -3 6 -1 10 4 10 6 0 11 -4 11 -10z m15 -98 c-16 -15 -23 -19
-16 -10 7 9 10 22 6 27 -3 7 0 8 9 5 10 -4 16 -1 16 7 0 7 3 9 7 5 4 -3 -6
-19 -22 -34z m-50 -64 c5 4 -7 -12 -25 -35 -18 -24 -35 -43 -38 -43 -2 0 7 15
21 34 20 26 23 36 14 47 -10 11 -9 11 4 1 9 -6 20 -8 24 -4z m-100 -1368 c-3
-5 -14 -10 -23 -10 -15 0 -15 2 -2 10 20 13 33 13 25 0z"/>
<path d="M245 4700 c3 -5 10 -10 16 -10 5 0 9 5 9 10 0 6 -7 10 -16 10 -8 0
-12 -4 -9 -10z"/>
<path d="M1173 4833 c15 -2 37 -2 50 0 12 2 0 4 -28 4 -27 0 -38 -2 -22 -4z"/>
<path d="M2740 4829 c-25 -5 -53 -7 -64 -5 -10 3 -28 0 -41 -6 -19 -9 -23 -20
-29 -83 -4 -40 -4 -91 0 -113 3 -22 7 -172 8 -333 1 -253 3 -300 18 -334 16
-37 17 -38 18 -12 0 15 5 27 11 27 6 0 8 7 5 16 -3 8 -2 13 2 11 4 -3 12 1 19
8 10 10 9 14 -2 19 -7 2 -16 0 -19 -7 -2 -7 -5 -4 -5 6 -1 9 -6 17 -12 17 -8
0 -7 6 2 17 10 11 10 14 2 9 -8 -4 -13 -1 -13 8 0 9 5 16 12 16 9 0 9 3 0 12
-7 7 -12 20 -12 29 0 22 49 35 62 17 7 -10 9 -10 5 2 -2 8 -13 16 -24 18 -16
2 -20 10 -19 40 1 29 5 36 19 34 26 -4 21 6 -15 29 -18 12 -25 19 -15 15 9 -3
17 -1 17 4 0 6 -6 10 -12 10 -10 0 -9 3 1 9 7 5 10 14 7 20 -4 6 0 11 8 11 9
0 16 5 16 11 0 5 -5 7 -10 4 -12 -7 -40 12 -40 27 0 5 8 7 19 3 12 -3 21 0 24
9 4 11 1 13 -10 9 -10 -4 -14 -2 -9 5 3 6 -2 15 -11 21 -12 7 -13 10 -4 11 11
0 11 3 0 16 -11 14 -10 18 6 30 10 8 15 14 11 14 -5 0 -4 6 2 13 7 8 7 18 2
27 -14 22 -12 30 5 24 10 -4 15 0 15 14 0 12 9 23 20 27 17 5 18 10 9 27 -6
11 -9 22 -6 24 2 2 9 -7 15 -21 7 -15 8 -27 2 -30 -20 -12 -9 -41 20 -58 17
-10 30 -13 30 -8 0 6 -4 11 -9 11 -5 0 -11 7 -15 15 -10 26 9 16 27 -15 10
-16 22 -30 27 -30 15 0 70 61 64 71 -2 5 4 17 15 28 23 23 41 108 30 139 -8
20 -6 20 19 10 15 -7 31 -15 37 -20 13 -11 35 -10 35 2 0 6 -7 10 -16 10 -19
0 -15 31 5 38 10 3 12 0 8 -12 -9 -23 22 -17 46 9 10 11 16 15 13 8 -11 -22
14 -24 42 -4 24 17 33 18 70 8 23 -6 42 -16 42 -23 0 -7 8 -15 18 -19 14 -5
15 -4 5 6 -20 20 -15 31 10 24 19 -6 20 -5 7 7 -14 14 -122 38 -171 38 -13 0
-54 -10 -91 -21 l-68 -22 -63 22 c-35 11 -68 21 -73 20 -5 -1 -29 -5 -54 -10z
m-40 -29 c0 -5 -4 -10 -10 -10 -5 0 -10 5 -10 10 0 6 5 10 10 10 6 0 10 -4 10
-10z m-10 -30 c12 -8 12 -10 -3 -16 -11 -4 -17 -18 -18 -43 -1 -33 -1 -34 -9
-10 -8 28 -2 79 9 79 3 0 13 -4 21 -10z m10 -90 c0 -5 -2 -10 -4 -10 -3 0 -8
5 -11 10 -3 6 -1 10 4 10 6 0 11 -4 11 -10z m-40 -482 c0 -6 -7 -5 -15 2 -8 7
-15 17 -15 22 0 6 7 5 15 -2 8 -7 15 -17 15 -22z"/>
<path d="M3525 4829 c-83 -6 -155 -24 -155 -40 0 -3 -12 -4 -26 -1 -19 3 -25
1 -20 -7 10 -16 37 -14 77 6 42 21 69 26 69 13 0 -6 -7 -10 -16 -10 -8 0 -12
-4 -9 -10 3 -6 -1 -7 -9 -4 -9 3 -16 1 -16 -5 0 -6 6 -11 14 -11 8 0 17 -6 19
-12 4 -8 8 -4 12 9 15 49 49 54 335 53 383 0 500 2 500 12 0 9 -31 10 -405 12
-154 0 -320 -2 -370 -5z"/>
<path d="M4443 4826 c0 -7 9 -19 20 -25 16 -11 18 -10 12 8 -4 14 -2 19 9 17
9 -1 19 -5 22 -9 11 -11 21 -8 28 8 4 12 -4 15 -43 15 -34 0 -48 -4 -48 -14z"/>
<path d="M168 4817 c-10 -8 -20 -35 -24 -68 -7 -50 -6 -53 9 -40 10 7 17 23
17 35 0 13 11 33 25 46 19 18 22 26 13 32 -17 10 -20 10 -40 -5z"/>
<path d="M1388 4823 c7 -3 16 -2 19 1 4 3 -2 6 -13 5 -11 0 -14 -3 -6 -6z"/>
<path d="M4555 4820 c3 -5 8 -10 11 -10 2 0 4 5 4 10 0 6 -5 10 -11 10 -5 0
-7 -4 -4 -10z"/>
<path d="M4697 4815 c3 -8 9 -13 13 -10 5 3 12 0 16 -7 4 -7 4 -10 -1 -6 -4 4
-23 1 -43 -7 -21 -9 -39 -12 -46 -6 -18 14 -86 19 -86 6 0 -7 -11 -17 -25 -23
-14 -6 -25 -16 -25 -22 0 -7 7 -4 16 4 20 21 23 20 17 -3 -3 -11 12 -54 33
-98 21 -43 37 -81 36 -85 -1 -5 5 -8 13 -8 8 0 15 -7 15 -15 0 -25 16 -17 69
35 28 28 55 50 61 50 6 0 8 4 5 10 -3 5 6 12 20 16 14 3 25 10 25 16 0 5 -4 6
-10 3 -5 -3 -10 3 -10 14 0 11 -4 23 -10 26 -5 3 -10 -3 -10 -14 0 -12 -4 -21
-10 -21 -13 0 -13 16 0 41 8 13 7 25 -1 41 -10 18 -9 20 5 15 22 -8 20 -1 -4
23 -28 28 -71 45 -63 25z"/>
<path d="M2210 4817 c0 -2 14 -13 30 -25 17 -13 30 -19 30 -14 0 4 -13 16 -30
25 -16 10 -30 16 -30 14z"/>
<path d="M4388 4813 c-23 -6 -23 -16 0 -36 16 -15 19 -15 19 -2 0 8 -5 15 -10
15 -5 0 -4 7 3 15 7 8 11 14 9 14 -2 -1 -12 -3 -21 -6z"/>
<path d="M4636 4798 c3 -4 9 -8 15 -8 5 0 9 4 9 8 0 5 -7 9 -15 9 -8 0 -12 -4
-9 -9z"/>
<path d="M2143 4792 c-7 -4 -9 -13 -4 -21 6 -9 11 -10 15 -3 4 6 13 9 21 5 9
-3 15 1 15 11 0 17 -26 21 -47 8z"/>
<path d="M4195 4790 c-3 -6 1 -7 9 -4 18 7 21 14 7 14 -6 0 -13 -4 -16 -10z"/>
<path d="M2201 4787 c2 -1 13 -9 24 -17 19 -14 19 -14 6 3 -7 9 -18 17 -24 17
-6 0 -8 -1 -6 -3z"/>
<path d="M3185 4779 c-4 -6 -5 -12 -2 -15 2 -3 7 2 10 11 7 17 1 20 -8 4z"/>
<path d="M3280 4780 c0 -5 7 -7 15 -4 8 4 15 8 15 10 0 2 -7 4 -15 4 -8 0 -15
-4 -15 -10z"/>
<path d="M2066 4696 c-50 -91 -57 -136 -28 -169 12 -15 13 -18 2 -12 -9 5 -7
0 5 -14 14 -16 21 -19 25 -9 8 21 29 19 23 -2 -4 -16 0 -20 22 -20 22 0 26 4
22 20 -6 22 18 29 26 8 3 -10 8 -10 18 1 9 9 9 11 2 7 -19 -11 -16 1 7 24 38
38 35 62 -15 154 -25 47 -50 88 -55 91 -5 3 -29 -33 -54 -79z"/>
<path d="M190 4755 c-7 -9 -8 -15 -2 -15 5 0 12 7 16 15 3 8 4 15 2 15 -2 0
-9 -7 -16 -15z"/>
<path d="M4205 4760 c-3 -5 -2 -10 4 -10 5 0 13 5 16 10 3 6 2 10 -4 10 -5 0
-13 -4 -16 -10z"/>
<path d="M4250 4743 c0 -14 1 -24 3 -22 1 2 8 11 15 20 10 14 10 18 -3 23 -11
4 -15 -1 -15 -21z"/>
<path d="M4295 4760 c-3 -5 -1 -10 4 -10 6 0 11 5 11 10 0 6 -2 10 -4 10 -3 0
-8 -4 -11 -10z"/>
<path d="M640 4741 c0 -6 10 -8 22 -6 12 3 30 -3 40 -12 10 -9 18 -13 18 -8 0
14 -34 34 -57 35 -13 0 -23 -4 -23 -9z"/>
<path d="M3022 4737 c-8 -10 -6 -13 8 -14 13 -1 17 3 13 13 -6 17 -8 17 -21 1z"/>
<path d="M3237 4730 c3 -11 9 -20 14 -20 11 0 11 3 3 24 -9 23 -23 20 -17 -4z"/>
<path d="M3865 4740 c-3 -5 1 -10 9 -10 9 0 16 5 16 10 0 6 -4 10 -9 10 -6 0
-13 -4 -16 -10z"/>
<path d="M3950 4726 c0 -32 19 -45 58 -39 31 5 46 23 19 23 -8 0 -19 10 -25
23 -10 20 -11 20 -9 2 1 -12 -4 -20 -13 -20 -9 0 -14 7 -12 18 2 9 -2 17 -8
17 -5 0 -10 -11 -10 -24z"/>
<path d="M955 4730 c3 -5 11 -10 16 -10 6 0 7 5 4 10 -3 6 -11 10 -16 10 -6 0
-7 -4 -4 -10z"/>
<path d="M4180 4729 c0 -5 9 -9 20 -9 11 0 20 -5 20 -10 0 -6 -18 -8 -43 -6
-23 2 -67 -2 -97 -10 -30 -8 -67 -17 -83 -19 -15 -3 -61 -21 -102 -40 -41 -19
-79 -35 -85 -35 -5 0 -10 -3 -10 -8 0 -4 -19 -18 -43 -31 l-43 -23 -42 21
c-26 13 -40 26 -36 33 4 6 3 8 -4 5 -5 -4 -18 -4 -27 -1 -13 5 -14 8 -3 15 9
6 7 9 -9 9 -12 0 -25 5 -28 10 -3 6 -17 10 -30 10 -13 0 -27 5 -30 10 -3 6
-19 10 -35 10 -15 0 -36 3 -45 6 -15 6 -15 8 0 24 18 20 14 24 -28 34 -34 8
-63 -14 -44 -33 9 -10 5 -11 -18 -5 -39 9 -46 13 -40 24 7 11 -50 -6 -87 -26
-14 -8 -32 -14 -40 -13 -7 0 -3 5 10 11 12 6 22 14 22 18 0 15 -40 18 -51 4
-7 -8 -20 -12 -30 -9 -25 8 -25 -13 0 -23 15 -6 13 -9 -16 -24 -28 -13 -33
-13 -29 -2 3 8 1 14 -4 14 -5 0 -11 -9 -15 -20 -3 -10 -26 -32 -49 -47 -24
-15 -53 -41 -65 -58 -11 -16 -33 -44 -48 -62 -56 -63 -63 -73 -51 -73 6 0 4
-8 -5 -18 -10 -10 -19 -32 -20 -48 -2 -16 -10 -41 -17 -54 -20 -35 -20 -92 -1
-85 11 4 10 1 -2 -13 -10 -11 -17 -35 -17 -59 0 -23 -5 -43 -11 -45 -8 -3 -8
-14 0 -43 6 -22 11 -64 11 -93 0 -30 4 -51 9 -48 5 4 8 -2 6 -11 -1 -10 4 -31
12 -46 7 -15 11 -32 8 -37 -3 -6 -1 -10 5 -10 6 0 8 -5 4 -12 -4 -7 -3 -8 4
-4 14 8 46 -39 37 -54 -3 -5 1 -13 9 -16 9 -3 16 -16 16 -28 0 -12 11 -38 25
-58 14 -20 25 -40 25 -44 0 -4 7 -12 16 -18 9 -7 17 -24 17 -39 1 -15 7 -26
13 -24 15 3 123 -113 124 -132 0 -8 3 -11 6 -8 4 3 20 -8 35 -26 94 -105 133
-147 216 -232 51 -52 90 -95 86 -95 -3 0 4 -9 17 -20 13 -11 28 -20 33 -20 6
0 8 -3 4 -6 -7 -7 39 -47 66 -57 9 -3 17 -12 17 -19 1 -23 37 -58 54 -52 10 4
16 1 16 -8 0 -8 7 -23 15 -34 8 -10 15 -14 14 -9 -1 6 -1 19 0 30 1 15 5 13
16 -12 8 -18 18 -33 23 -33 6 0 60 50 122 110 62 61 117 110 122 110 4 0 8 6
8 14 0 15 67 86 81 86 5 0 9 6 9 13 0 7 9 18 20 25 12 7 17 18 13 29 -5 13 -2
15 11 10 10 -4 15 -3 11 3 -3 5 4 14 15 20 11 6 20 18 20 27 0 8 24 38 52 64
29 27 49 49 45 49 -12 0 43 93 64 108 10 7 19 21 19 31 0 22 26 35 34 18 3 -7
3 -1 0 12 -5 19 -3 23 10 18 8 -3 18 -1 22 5 4 7 3 8 -4 4 -21 -13 -13 15 11
36 12 11 15 16 7 12 -11 -5 -10 -2 3 13 9 11 15 23 12 26 -3 4 0 3 7 -3 8 -6
18 0 35 22 13 18 23 37 23 42 0 6 14 24 31 40 18 17 28 35 24 43 -4 11 -1 13
11 9 12 -5 15 -2 10 10 -9 24 4 64 22 64 12 0 13 -3 4 -12 -7 -7 -12 -19 -12
-28 0 -8 14 7 31 33 19 31 28 55 24 68 -5 14 -3 17 10 13 14 -6 15 4 13 75 -2
53 -7 82 -15 86 -7 2 -13 10 -12 17 0 10 2 10 6 1 6 -17 26 -17 21 -1 -3 7 1
19 9 26 19 20 17 43 -4 35 -17 -5 -17 -5 0 8 17 14 17 17 2 53 -12 29 -14 41
-5 46 8 5 9 10 2 14 -6 4 -8 14 -5 23 5 12 3 14 -7 8 -10 -6 -12 -4 -8 7 5 11
0 14 -20 11 -24 -3 -25 -3 -6 6 28 13 29 60 2 70 -19 7 -19 8 -3 24 14 15 15
17 1 17 -21 0 -20 10 2 26 15 12 15 12 -6 7 -17 -4 -24 -1 -28 13 -3 11 -18
28 -34 39 -15 10 -26 24 -24 29 2 6 -6 16 -18 21 -13 6 -27 24 -32 43 -9 33
-24 40 -43 21 -19 -19 -46 -2 -39 24 5 21 3 22 -35 19 -71 -7 -129 7 -139 32
-8 23 -50 43 -50 25z m-380 -226 c-8 -3 -23 -15 -33 -27 -10 -11 -15 -14 -11
-6 14 28 26 40 43 39 13 0 14 -1 1 -6z m824 -144 c-6 -11 -24 -2 -24 11 0 5 7
7 15 4 8 -4 12 -10 9 -15z m15 -331 c-9 -16 -14 -19 -17 -9 -2 7 2 17 9 22 20
13 21 11 8 -13z m-1759 -185 c0 -3 -7 0 -15 7 -8 7 -15 24 -15 39 1 25 1 25
15 -8 8 -18 15 -36 15 -38z m19 -53 c11 -24 11 -24 -3 -6 -9 11 -16 24 -16 30
0 12 5 7 19 -24z"/>
<path d="M4352 4727 c-8 -10 -6 -13 9 -14 19 -2 26 11 10 21 -5 3 -14 0 -19
-7z"/>
<path d="M1551 4714 c0 -11 3 -14 6 -6 3 7 2 16 -1 19 -3 4 -6 -2 -5 -13z"/>
<path d="M3060 4722 c0 -6 6 -13 13 -16 6 -3 1 -3 -12 0 -16 4 -21 3 -17 -5
12 -18 48 -13 44 6 -3 18 -28 31 -28 15z"/>
<path d="M3125 4720 c-3 -5 -2 -10 4 -10 5 0 13 5 16 10 3 6 2 10 -4 10 -5 0
-13 -4 -16 -10z"/>
<path d="M3447 4698 c-3 -8 4 -13 18 -13 14 0 21 5 18 13 -3 6 -11 12 -18 12
-7 0 -15 -6 -18 -12z"/>
<path d="M3675 4700 c-3 -5 1 -10 10 -10 9 0 13 5 10 10 -3 6 -8 10 -10 10 -2
0 -7 -4 -10 -10z"/>
<path d="M4290 4693 c0 -9 8 -13 23 -11 25 3 21 21 -5 23 -10 1 -18 -5 -18
-12z"/>
<path d="M724 4667 c-11 -12 -12 -17 -4 -11 8 6 22 13 30 16 9 3 10 7 3 11 -6
4 -19 -3 -29 -16z"/>
<path d="M3645 4681 c-3 -5 -1 -12 5 -16 5 -3 10 1 10 9 0 18 -6 21 -15 7z"/>
<path d="M483 4673 c-7 -2 -13 -9 -13 -15 0 -6 7 -7 16 -4 10 4 14 1 12 -6 -4
-10 25 -48 36 -48 2 0 -5 18 -16 40 -11 22 -21 40 -22 39 0 0 -7 -3 -13 -6z"/>
<path d="M2310 4656 c0 -8 5 -18 10 -21 6 -3 10 3 10 14 0 12 -4 21 -10 21 -5
0 -10 -6 -10 -14z"/>
<path d="M4427 4655 c-10 -7 -14 -15 -10 -18 12 -8 36 9 32 21 -3 7 -10 6 -22
-3z"/>
<path d="M530 4652 c0 -5 7 -17 15 -28 13 -16 14 -16 9 -1 -8 21 14 23 23 1 5
-12 7 -13 14 -2 5 8 1 17 -14 25 -26 14 -47 17 -47 5z"/>
<path d="M820 4640 c0 -5 5 -10 11 -10 5 0 7 5 4 10 -3 6 -8 10 -11 10 -2 0
-4 -4 -4 -10z"/>
<path d="M670 4632 c0 -14 32 -20 55 -11 19 7 19 8 -2 8 -12 1 -28 4 -37 7 -9
3 -16 2 -16 -4z"/>
<path d="M607 4623 c-4 -3 -6 -18 -6 -32 1 -17 3 -20 6 -8 5 20 16 21 43 5 17
-11 22 -10 30 1 13 22 -54 54 -73 34z"/>
<path d="M2318 4595 c5 -11 12 -27 15 -35 5 -13 6 -13 6 1 1 8 -6 24 -15 35
-15 19 -15 19 -6 -1z"/>
<path d="M691 4584 c-1 -6 -12 -17 -26 -24 -28 -15 -34 -33 -7 -23 26 10 44
32 39 46 -3 7 -6 7 -6 1z"/>
<path d="M611 4565 c-34 -12 -34 -12 -8 -17 16 -3 31 0 38 9 16 19 9 21 -30 8z"/>
<path d="M735 4570 c-3 -5 -1 -10 4 -10 6 0 11 5 11 10 0 6 -2 10 -4 10 -3 0
-8 -4 -11 -10z"/>
<path d="M2300 4545 c0 -8 4 -15 10 -15 5 0 7 7 4 15 -4 8 -8 15 -10 15 -2 0
-4 -7 -4 -15z"/>
<path d="M809 4513 c-13 -16 -12 -17 4 -4 9 7 17 15 17 17 0 8 -8 3 -21 -13z"/>
<path d="M4661 4521 c-7 -5 -9 -11 -4 -14 5 -3 15 -2 22 2 7 5 9 11 4 14 -5 3
-15 2 -22 -2z"/>
<path d="M605 4500 c-3 -11 -11 -20 -16 -20 -5 0 -9 -4 -9 -8 0 -5 10 -8 22
-7 30 2 47 55 18 55 -5 0 -12 -9 -15 -20z"/>
<path d="M2705 4510 c3 -5 8 -10 11 -10 2 0 4 5 4 10 0 6 -5 10 -11 10 -5 0
-7 -4 -4 -10z"/>
<path d="M550 4481 c0 -5 5 -13 10 -16 6 -3 10 -2 10 4 0 5 -4 13 -10 16 -5 3
-10 2 -10 -4z"/>
<path d="M200 4472 c0 -5 12 -14 26 -20 14 -7 23 -8 19 -2 -9 15 -45 32 -45
22z"/>
<path d="M1625 4460 c3 -5 8 -10 11 -10 2 0 4 5 4 10 0 6 -5 10 -11 10 -5 0
-7 -4 -4 -10z"/>
<path d="M303 4414 c23 -45 29 -51 56 -50 30 1 37 6 25 19 -4 3 -15 2 -25 -3
-14 -8 -21 -6 -30 11 -8 15 -8 24 0 32 8 8 11 8 11 -1 0 -7 5 -12 11 -12 8 0
7 5 -1 15 -7 9 -18 14 -24 12 -6 -3 -19 3 -30 12 -15 13 -14 7 7 -35z"/>
<path d="M2790 4448 c0 -9 5 -20 10 -23 13 -8 13 5 0 25 -8 13 -10 13 -10 -2z"/>
<path d="M210 4433 c5 -2 8 -9 4 -14 -3 -5 0 -9 6 -9 15 0 7 23 -8 26 -7 1 -8
0 -2 -3z"/>
<path d="M2145 4425 c-25 -11 -27 -14 -9 -14 12 -1 27 6 34 14 15 18 14 18
-25 0z"/>
<path d="M255 4419 c-4 -6 -5 -12 -2 -15 2 -3 7 2 10 11 7 17 1 20 -8 4z"/>
<path d="M195 4390 c3 -5 8 -10 11 -10 2 0 4 5 4 10 0 6 -5 10 -11 10 -5 0 -7
-4 -4 -10z"/>
<path d="M2771 4384 c0 -11 3 -14 6 -6 3 7 2 16 -1 19 -3 4 -6 -2 -5 -13z"/>
<path d="M146 4178 c4 -106 12 -206 18 -221 8 -22 10 19 8 180 -3 216 -4 233
-22 233 -7 0 -8 -60 -4 -192z"/>
<path d="M221 4365 c0 -16 25 -45 32 -38 11 10 8 25 -2 18 -6 -3 -14 3 -20 12
-6 10 -10 14 -10 8z"/>
<path d="M2306 4355 c-20 -20 -21 -49 -1 -65 20 -16 35 -4 35 28 0 42 -14 57
-34 37z"/>
<path d="M2738 4363 c7 -3 16 -2 19 1 4 3 -2 6 -13 5 -11 0 -14 -3 -6 -6z"/>
<path d="M450 4349 c0 -5 5 -7 10 -4 6 3 10 8 10 11 0 2 -4 4 -10 4 -5 0 -10
-5 -10 -11z"/>
<path d="M361 4338 c-2 -25 19 -33 37 -13 16 16 16 17 -5 6 -18 -9 -22 -8 -26
7 -4 15 -5 15 -6 0z"/>
<path d="M2106 4337 c3 -10 9 -15 12 -12 3 3 0 11 -7 18 -10 9 -11 8 -5 -6z"/>
<path d="M2716 4333 c-6 -14 -5 -15 5 -6 7 7 10 15 7 18 -3 3 -9 -2 -12 -12z"/>
<path d="M2781 4334 c0 -11 3 -14 6 -6 3 7 2 16 -1 19 -3 4 -6 -2 -5 -13z"/>
<path d="M2047 4320 c3 -11 7 -20 9 -20 2 0 4 9 4 20 0 11 -4 20 -9 20 -5 0
-7 -9 -4 -20z"/>
<path d="M202 4305 c0 -16 2 -22 5 -12 2 9 2 23 0 30 -3 6 -5 -1 -5 -18z"/>
<path d="M2740 4310 c0 -5 5 -10 10 -10 6 0 10 5 10 10 0 6 -4 10 -10 10 -5 0
-10 -4 -10 -10z"/>
<path d="M405 4300 c-3 -5 -1 -10 4 -10 6 0 11 5 11 10 0 6 -2 10 -4 10 -3 0
-8 -4 -11 -10z"/>
<path d="M225 4289 c-4 -6 -5 -12 -2 -15 2 -3 7 2 10 11 7 17 1 20 -8 4z"/>
<path d="M304 4275 c-1 -14 2 -25 7 -25 5 0 9 11 9 25 0 33 -15 33 -16 0z"/>
<path d="M2706 4285 c4 -8 15 -15 27 -15 23 0 22 2 -10 19 -19 10 -22 9 -17
-4z"/>
<path d="M2066 4278 c3 -5 10 -6 15 -3 13 9 11 12 -6 12 -8 0 -12 -4 -9 -9z"/>
<path d="M4802 4230 c-1 -36 -5 -76 -7 -90 l-6 -25 11 24 c6 14 9 54 7 90 l-3
66 -2 -65z"/>
<path d="M2136 4257 c3 -10 9 -15 12 -12 3 3 0 11 -7 18 -10 9 -11 8 -5 -6z"/>
<path d="M219 4247 c15 -19 56 -23 67 -6 4 7 0 9 -14 5 -12 -4 -32 -2 -44 5
-21 11 -22 11 -9 -4z"/>
<path d="M2747 4236 c-3 -8 -2 -18 4 -22 16 -9 22 2 11 21 -8 15 -10 16 -15 1z"/>
<path d="M2273 3979 c4 -140 7 -359 7 -487 0 -161 3 -231 11 -227 7 5 9 157 7
483 -3 398 -5 476 -17 480 -12 4 -13 -33 -8 -249z"/>
<path d="M2313 4205 c0 -8 4 -12 9 -9 5 3 6 10 3 15 -9 13 -12 11 -12 -6z"/>
<path d="M183 4185 c0 -8 4 -15 9 -15 4 0 8 4 8 9 0 6 -4 12 -8 15 -5 3 -9 -1
-9 -9z"/>
<path d="M2230 4191 c0 -18 12 -41 21 -41 15 0 10 37 -6 44 -8 3 -15 1 -15 -3z"/>
<path d="M2381 4184 c0 -11 3 -14 6 -6 3 7 2 16 -1 19 -3 4 -6 -2 -5 -13z"/>
<path d="M2700 4041 c0 -6 7 -8 16 -4 9 3 20 0 26 -8 8 -12 9 -11 5 1 -4 17
-47 27 -47 11z"/>
<path d="M2006 3932 c-3 -6 -1 -14 5 -17 14 -9 20 -2 10 14 -6 8 -11 9 -15 3z"/>
<path d="M4800 3905 c1 -26 2 -28 11 -12 8 14 8 22 0 30 -8 8 -11 3 -11 -18z"/>
<path d="M154 3906 c-3 -8 -4 -124 -2 -259 2 -176 6 -249 15 -258 10 -10 13
36 15 209 2 122 -1 222 -5 222 -5 0 -5 6 -1 12 12 19 12 48 1 41 -6 -4 -7 4
-3 21 7 27 -10 38 -20 12z"/>
<path d="M2616 3898 c-11 -35 -14 -178 -6 -303 9 -139 23 -215 40 -215 5 0 4
13 -2 30 -6 19 -7 49 -2 78 4 26 6 51 5 57 -1 5 -4 39 -5 75 -1 36 -1 55 1 43
6 -33 18 -28 18 7 0 17 -5 30 -12 30 -7 0 -13 12 -13 26 0 16 4 23 11 18 8 -5
8 -1 0 14 -15 27 -14 95 1 110 9 9 9 12 0 12 -7 0 -12 7 -12 15 0 18 -19 20
-24 3z"/>
<path d="M2322 3830 c0 -19 2 -27 5 -17 2 9 2 25 0 35 -3 9 -5 1 -5 -18z"/>
<path d="M2650 3835 c0 -8 2 -15 4 -15 2 0 6 7 10 15 3 8 1 15 -4 15 -6 0 -10
-7 -10 -15z"/>
<path d="M2657 3803 c-10 -10 -8 -33 2 -33 6 0 9 9 8 20 -1 23 -1 22 -10 13z"/>
<path d="M2934 3519 c-3 -6 -1 -16 5 -22 8 -8 11 -5 11 11 0 24 -5 28 -16 11z"/>
<path d="M2636 3338 c-16 -25 -19 -55 -20 -182 0 -106 3 -161 13 -183 13 -31
31 -45 31 -23 0 6 -4 10 -10 10 -20 0 -10 27 15 40 26 14 25 25 -2 25 -11 0
-16 13 -19 43 -3 37 -1 44 18 53 21 9 21 9 2 6 -21 -4 -21 -2 -18 106 2 70 7
113 14 117 7 4 8 10 3 13 -5 3 -17 -8 -27 -25z"/>
<path d="M162 3334 c-13 -28 -5 -194 9 -194 5 0 9 50 9 110 0 61 -2 110 -3
110 -2 0 -9 -11 -15 -26z"/>
<path d="M2760 3310 c0 -5 5 -10 11 -10 5 0 7 5 4 10 -3 6 -8 10 -11 10 -2 0
-4 -4 -4 -10z"/>
<path d="M290 3263 c0 -14 19 -38 25 -32 8 8 -5 39 -16 39 -5 0 -9 -3 -9 -7z"/>
<path d="M2155 3240 c-3 -5 -2 -18 4 -27 7 -14 9 -12 8 10 -2 30 -3 31 -12 17z"/>
<path d="M145 3125 c2 -60 9 -131 16 -157 12 -44 12 -50 -10 -78 -20 -27 -22
-39 -17 -103 3 -40 5 -74 5 -75 2 -12 74 -72 79 -67 4 4 -1 12 -10 19 -11 8
-20 33 -24 72 -4 32 -12 65 -18 73 -9 12 -8 13 7 8 15 -6 17 -3 10 16 -11 33
-6 109 10 134 4 6 1 18 -7 25 -11 11 -11 17 -1 31 17 24 28 21 19 -5 -6 -21
-5 -21 10 -9 15 13 15 16 -6 38 -16 18 -24 20 -31 11 -6 -9 -7 -5 -3 11 3 14
-1 39 -9 55 -8 17 -16 49 -18 71 -3 22 -3 -9 -2 -70z m28 -424 c-9 -13 -17 21
-13 54 2 12 5 6 9 -15 4 -19 6 -37 4 -39z"/>
<path d="M4657 3207 l-17 -32 20 24 c17 20 26 41 18 41 -2 0 -11 -15 -21 -33z"/>
<path d="M2280 3188 c0 -29 20 -68 34 -68 8 0 -13 83 -23 93 -8 8 -11 1 -11
-25z"/>
<path d="M2879 3203 c-13 -16 -12 -17 4 -4 16 13 21 21 13 21 -2 0 -10 -8 -17
-17z"/>
<path d="M4691 3197 c-8 -10 -7 -14 2 -14 8 0 14 6 14 14 0 7 -1 13 -2 13 -2
0 -8 -6 -14 -13z"/>
<path d="M2700 3180 c0 -5 5 -10 10 -10 6 0 10 5 10 10 0 6 -4 10 -10 10 -5 0
-10 -4 -10 -10z"/>
<path d="M4766 3175 c4 -8 8 -15 10 -15 2 0 4 7 4 15 0 8 -4 15 -10 15 -5 0
-7 -7 -4 -15z"/>
<path d="M2830 3160 c0 -5 5 -10 10 -10 6 0 10 5 10 10 0 6 -4 10 -10 10 -5 0
-10 -4 -10 -10z"/>
<path d="M4756 3135 c-3 -8 -1 -15 4 -15 6 0 10 7 10 15 0 8 -2 15 -4 15 -2 0
-6 -7 -10 -15z"/>
<path d="M4636 3105 c8 -37 14 -45 14 -19 0 10 -5 26 -10 34 -8 11 -9 7 -4
-15z"/>
<path d="M250 3110 c0 -5 5 -10 11 -10 5 0 7 5 4 10 -3 6 -8 10 -11 10 -2 0
-4 -4 -4 -10z"/>
<path d="M293 3105 c0 -8 4 -15 9 -15 4 0 8 4 8 9 0 6 -4 12 -8 15 -5 3 -9 -1
-9 -9z"/>
<path d="M4776 3103 c-6 -14 -5 -15 5 -6 7 7 10 15 7 18 -3 3 -9 -2 -12 -12z"/>
<path d="M2653 3085 c0 -8 3 -14 6 -13 18 2 22 -3 13 -15 -8 -10 -6 -13 9 -13
22 0 22 1 9 25 -12 23 -37 34 -37 16z"/>
<path d="M280 3065 c-14 -16 -3 -20 19 -6 8 5 9 11 3 15 -5 3 -15 -1 -22 -9z"/>
<path d="M358 3063 c7 -3 16 -2 19 1 4 3 -2 6 -13 5 -11 0 -14 -3 -6 -6z"/>
<path d="M4705 3049 c-11 -16 -1 -19 13 -3 7 8 8 14 3 14 -5 0 -13 -5 -16 -11z"/>
<path d="M270 3025 c0 -8 5 -15 10 -15 6 0 10 7 10 15 0 8 -4 15 -10 15 -5 0
-10 -7 -10 -15z"/>
<path d="M2011 3013 c-12 -14 -19 -28 -16 -31 6 -6 55 38 55 50 0 16 -19 7
-39 -19z"/>
<path d="M350 3019 c0 -5 -4 -8 -9 -4 -5 3 -12 1 -16 -5 -10 -16 21 -12 35 5
9 10 9 15 1 15 -6 0 -11 -5 -11 -11z"/>
<path d="M375 3000 c-3 -5 -1 -10 4 -10 6 0 11 5 11 10 0 6 -2 10 -4 10 -3 0
-8 -4 -11 -10z"/>
<path d="M276 2965 c-11 -8 -17 -17 -14 -20 2 -3 15 4 28 15 26 23 15 27 -14
5z"/>
<path d="M2945 2960 c-3 -5 -2 -10 4 -10 5 0 13 5 16 10 3 6 2 10 -4 10 -5 0
-13 -4 -16 -10z"/>
<path d="M4080 2959 c0 -5 5 -7 10 -4 6 3 10 8 10 11 0 2 -4 4 -10 4 -5 0 -10
-5 -10 -11z"/>
<path d="M330 2940 c9 -17 8 -20 -12 -20 -29 0 -68 -26 -68 -46 0 -8 -4 -12
-10 -9 -5 3 -10 1 -10 -5 0 -7 -6 -10 -14 -7 -10 4 -13 -2 -12 -24 1 -17 -1
-32 -6 -35 -7 -4 0 -63 9 -73 7 -9 88 -6 96 4 5 6 7 4 6 -5 -1 -8 -1 -27 0
-41 1 -25 3 -26 39 -19 21 4 44 10 50 14 7 4 12 2 12 -3 0 -6 7 -11 15 -11 8
0 15 5 15 11 0 5 -5 7 -12 3 -8 -5 -9 -2 -4 12 12 30 14 64 4 64 -5 0 0 15 11
34 27 43 27 76 0 111 -16 20 -28 26 -46 22 -22 -4 -24 -1 -20 19 4 21 0 24
-25 24 -26 0 -28 -2 -18 -20z m-83 -125 c-3 -19 -2 -37 2 -40 5 -2 11 -13 13
-23 4 -15 0 -19 -23 -20 -19 0 -29 4 -29 14 0 8 5 14 11 14 5 0 7 -4 4 -10 -3
-5 -2 -10 4 -10 20 0 21 19 1 30 -17 9 -19 14 -10 25 7 8 8 20 4 26 -4 8 -3 9
4 5 7 -4 12 -1 12 8 0 9 3 16 6 16 4 0 4 -16 1 -35z"/>
<path d="M2100 2941 c14 -27 13 -41 -4 -35 -21 8 -87 -23 -81 -38 2 -7 6 -35
9 -63 5 -63 20 -100 43 -114 17 -10 17 -10 -2 -11 -24 -1 61 -39 89 -39 20 -1
20 -1 0 14 -12 9 -13 13 -4 10 11 -4 26 12 50 56 19 34 34 68 32 75 -2 8 2 14
8 14 6 0 7 7 2 18 -38 77 -38 77 -70 76 -31 -2 -45 17 -22 31 21 13 9 25 -25
25 -32 0 -35 -2 -25 -19z m111 -174 c-10 -9 -11 -8 -5 6 3 10 9 15 12 12 3 -3
0 -11 -7 -18z"/>
<path d="M4600 2908 c-66 -100 -80 -126 -84 -160 -2 -18 -4 -37 -5 -42 0 -4
-8 -6 -16 -2 -8 3 -15 1 -15 -3 0 -5 -9 -7 -19 -4 -11 3 -17 11 -15 17 6 17
-22 41 -31 26 -3 -5 2 -10 12 -10 13 -1 10 -5 -11 -16 -32 -18 -20 -36 17 -26
14 4 18 2 12 -7 -5 -10 -2 -11 13 -7 11 4 53 -2 93 -14 79 -22 159 -26 159 -9
0 5 5 7 11 4 19 -12 59 4 59 25 0 10 4 21 9 25 15 9 23 87 12 115 -7 18 -10
20 -10 8 -1 -10 -6 -18 -12 -18 -8 0 -10 14 -6 43 3 23 3 35 0 27 -3 -8 -12
-22 -20 -32 -10 -11 -11 -18 -4 -23 13 -7 15 -25 3 -25 -5 0 -17 17 -26 38
-10 21 -34 57 -54 81 l-37 41 -35 -52z m200 -123 c0 -14 -4 -25 -10 -25 -11 0
-14 33 -3 43 11 11 13 8 13 -18z m-30 -97 c0 -14 -16 -16 -39 -3 -24 12 -24
12 8 11 17 0 31 -4 31 -8z m-75 -8 c3 -5 2 -10 -4 -10 -5 0 -13 5 -16 10 -3 6
-2 10 4 10 5 0 13 -4 16 -10z m-35 -15 c0 -8 -7 -15 -16 -15 -14 0 -14 3 -4
15 7 8 14 15 16 15 2 0 4 -7 4 -15z"/>
<path d="M230 2925 c-8 -9 -8 -15 -2 -15 12 0 26 19 19 26 -2 2 -10 -2 -17
-11z"/>
<path d="M193 2913 c4 -3 1 -13 -6 -21 -10 -13 -9 -14 3 -10 19 6 26 38 9 38
-7 0 -9 -3 -6 -7z"/>
<path d="M2779 2887 c-9 -17 -22 -31 -29 -29 -6 1 -9 -2 -6 -6 3 -5 -6 -22
-19 -36 -14 -15 -25 -31 -25 -37 0 -5 -4 -9 -9 -9 -5 0 -11 -13 -14 -30 -4
-16 -12 -30 -19 -30 -9 0 -9 3 0 12 7 7 12 21 12 33 0 11 7 40 16 64 8 24 13
46 10 48 -5 5 -49 -16 -56 -28 -3 -4 -12 -4 -20 1 -10 7 -11 10 -2 10 6 0 12
9 12 20 0 13 -5 18 -15 14 -34 -14 -12 -179 28 -213 29 -23 79 -31 121 -19 23
6 69 10 102 9 48 -1 63 3 68 15 3 8 10 12 16 9 6 -3 7 1 4 9 -3 9 -10 14 -14
11 -4 -3 -11 7 -15 22 -3 15 -24 57 -46 93 -26 44 -37 74 -33 86 4 14 3 15 -4
5 -7 -9 -12 -10 -16 -2 -13 20 -31 11 -47 -22z m-103 -64 c-10 -10 -19 5 -10
18 6 11 8 11 12 0 2 -7 1 -15 -2 -18z"/>
<path d="M3978 2871 c-15 -15 -14 -16 8 -17 25 -2 29 3 16 22 -5 8 -12 6 -24
-5z"/>
<path d="M1760 2810 c-8 -5 -10 -10 -5 -10 6 0 17 5 25 10 8 5 11 10 5 10 -5
0 -17 -5 -25 -10z"/>
<path d="M710 2794 c0 -9 40 -23 44 -15 3 5 -5 11 -19 13 -14 3 -25 4 -25 2z"/>
<path d="M2295 2790 c-3 -5 -1 -10 4 -10 6 0 11 5 11 10 0 6 -2 10 -4 10 -3 0
-8 -4 -11 -10z"/>
<path d="M3220 2780 c0 -5 4 -10 9 -10 6 0 13 5 16 10 3 6 -1 10 -9 10 -9 0
-16 -4 -16 -10z"/>
<path d="M2381 2764 c0 -11 3 -14 6 -6 3 7 2 16 -1 19 -3 4 -6 -2 -5 -13z"/>
<path d="M2997 2749 c-9 -5 -22 -7 -29 -3 -7 5 -8 3 -4 -5 5 -7 14 -10 22 -7
19 7 18 -8 -1 -24 -9 -7 -14 -19 -11 -27 3 -8 1 -11 -4 -8 -6 3 -10 1 -10 -5
0 -6 -4 -8 -10 -5 -5 3 -10 1 -10 -6 0 -7 10 -9 30 -6 16 4 32 2 36 -4 4 -7
11 -6 20 2 10 8 14 8 14 0 0 -6 10 -11 23 -10 l22 0 -22 9 c-12 5 -24 18 -28
29 -3 12 -11 21 -16 21 -6 0 -7 -4 -4 -10 3 -5 -1 -10 -9 -10 -20 0 -20 10 0
39 12 16 19 20 27 12 6 -6 15 -11 21 -11 5 0 0 9 -12 20 -24 23 -22 22 -45 9z"/>
<path d="M3660 2751 c0 -6 4 -13 10 -16 6 -3 7 1 4 9 -7 18 -14 21 -14 7z"/>
<path d="M610 2740 c0 -6 7 -10 15 -10 8 0 15 2 15 4 0 2 -7 6 -15 10 -8 3
-15 1 -15 -4z"/>
<path d="M1937 2732 c-22 -24 -8 -41 38 -49 27 -4 36 -3 31 5 -4 7 -14 12 -22
12 -8 0 -12 5 -9 10 3 6 0 17 -8 25 -13 12 -17 12 -30 -3z m13 -18 c0 -8 -5
-12 -10 -9 -6 4 -8 11 -5 16 9 14 15 11 15 -7z"/>
<path d="M2245 2739 c-4 -6 -5 -12 -2 -15 2 -3 7 2 10 11 7 17 1 20 -8 4z"/>
<path d="M3078 2742 c7 -5 11 -15 9 -23 -2 -8 -2 -11 0 -6 8 13 35 8 30 -6 -3
-8 0 -14 6 -14 7 0 21 -4 32 -8 18 -6 18 -5 2 5 -9 6 -28 22 -42 36 -13 13
-30 24 -37 24 -11 0 -11 -2 0 -8z"/>
<path d="M530 2725 c-14 -8 -20 -14 -14 -15 5 0 19 7 30 15 24 18 16 19 -16 0z"/>
<path d="M1810 2715 c-13 -14 -20 -25 -16 -25 11 0 50 39 44 45 -2 3 -15 -6
-28 -20z"/>
<path d="M1855 2730 c-3 -5 -3 -14 0 -20 3 -5 -3 -10 -14 -10 -12 0 -21 -4
-21 -10 0 -14 87 -12 96 2 4 6 2 14 -4 16 -7 2 -9 9 -6 15 3 7 -4 1 -15 -13
-20 -24 -26 -19 -22 18 2 15 -5 16 -14 2z"/>
<path d="M2276 2723 c-6 -14 -5 -15 5 -6 7 7 10 15 7 18 -3 3 -9 -2 -12 -12z"/>
<path d="M4290 2725 c-8 -9 -8 -15 -2 -15 12 0 26 19 19 26 -2 2 -10 -2 -17
-11z"/>
<path d="M2300 2715 c-11 -13 -10 -14 4 -9 9 3 16 10 16 15 0 13 -6 11 -20 -6z"/>
<path d="M3880 2717 c0 -8 7 -18 16 -21 11 -4 14 -1 12 11 -4 21 -28 30 -28
10z"/>
<path d="M4360 2712 c0 -7 -3 -11 -7 -11 -25 4 -63 -2 -63 -10 0 -10 77 -8 87
3 4 3 1 12 -5 18 -9 9 -12 9 -12 0z"/>
<path d="M2206 2695 c-11 -8 -16 -15 -12 -15 5 0 3 -7 -4 -15 -7 -9 -11 -17
-9 -19 2 -1 17 12 32 31 30 34 26 43 -7 18z"/>
<path d="M3052 2691 c7 -11 16 -17 20 -15 4 3 8 0 8 -5 0 -6 7 -11 15 -11 22
0 18 21 -5 27 -11 3 -20 9 -20 14 0 5 -7 9 -15 9 -12 0 -13 -3 -3 -19z"/>
<path d="M3210 2691 c-13 -26 -13 -31 3 -31 7 0 14 11 15 25 2 30 -4 32 -18 6z"/>
<path d="M3832 2692 c-18 -11 -28 -12 -46 -4 -29 13 -40 5 -23 -16 10 -13 9
-14 -3 -7 -21 13 -40 15 -40 5 0 -5 -10 -10 -22 -12 -18 -3 -14 -6 16 -12 24
-6 57 -4 91 4 39 9 57 10 73 1 24 -13 187 -14 217 -1 17 7 17 9 3 9 -12 1 -16
7 -12 19 5 16 5 16 -6 0 -6 -10 -18 -18 -27 -18 -15 0 -14 2 2 14 17 12 15 14
-18 20 -26 5 -44 2 -58 -7 -15 -11 -30 -12 -62 -5 -23 5 -46 13 -52 17 -6 5
-20 2 -33 -7z"/>
<path d="M464 2692 c-5 -4 -10 -15 -11 -25 0 -10 2 -16 5 -13 3 3 12 0 20 -6
21 -18 165 -14 192 5 21 14 21 15 -8 19 -21 3 -28 0 -25 -8 3 -7 -9 -13 -31
-16 -35 -4 -49 6 -23 15 7 2 8 8 3 13 -5 5 -14 0 -23 -12 -9 -14 -21 -20 -33
-17 -19 5 -34 29 -26 42 6 9 -28 11 -40 3z m26 -6 c0 -3 -4 -8 -10 -11 -5 -3
-10 -1 -10 4 0 6 5 11 10 11 6 0 10 -2 10 -4z"/>
<path d="M3267 2692 c-9 -2 -15 -7 -12 -12 3 -4 15 -6 28 -3 18 4 19 3 7 -6
-13 -9 -13 -11 3 -11 9 0 17 4 17 9 0 14 -24 28 -43 23z"/>
<path d="M3490 2690 c0 -5 5 -10 11 -10 5 0 7 5 4 10 -3 6 -8 10 -11 10 -2 0
-4 -4 -4 -10z"/>
<path d="M224 2671 c26 -29 66 -28 65 2 0 12 -3 16 -6 9 -4 -10 -8 -10 -21 0
-12 10 -14 10 -8 1 9 -16 1 -16 -27 -2 -22 12 -22 12 -3 -10z"/>
<path d="M3645 2680 c-4 -6 -11 -8 -16 -5 -5 4 -9 1 -9 -4 0 -6 12 -11 28 -10
15 0 21 3 14 6 -6 2 -10 9 -6 14 3 5 3 9 0 9 -3 0 -8 -5 -11 -10z"/>
<path d="M3690 2680 c-9 -6 -10 -10 -3 -10 6 0 15 5 18 10 8 12 4 12 -15 0z"/>
<path d="M4150 2677 c0 -5 14 -6 30 -2 19 4 30 3 30 -4 0 -6 -9 -11 -21 -11
-11 0 -17 -4 -14 -10 8 -13 195 -13 195 -1 0 6 -17 10 -37 11 -68 1 -102 7
-116 18 -16 13 -67 12 -67 -1z"/>
<path d="M2375 2651 c-4 -17 -15 -36 -26 -42 -13 -7 -362 -9 -1080 -8 -583 1
-1062 -1 -1065 -4 -22 -22 145 -26 1099 -27 699 0 1033 3 1047 10 18 10 47 86
37 97 -3 2 -8 -9 -12 -26z"/>
<path d="M3110 2654 c-24 -14 -22 -14 24 -9 48 5 76 15 43 15 -8 0 -21 2 -29
4 -7 2 -24 -2 -38 -10z"/>
<path d="M4827 2620 c-17 -21 -19 -21 -1078 -19 -583 0 -1063 -2 -1066 -5 -20
-20 145 -24 1082 -25 l1040 -2 24 25 c13 13 22 29 19 36 -2 6 -11 2 -21 -10z"/>
<path d="M330 2403 c0 -10 6 -12 20 -8 11 3 20 2 20 -3 0 -5 9 -12 21 -15 20
-5 20 -5 4 13 -21 24 -65 32 -65 13z"/>
<path d="M566 2411 c-14 -5 -16 -10 -8 -15 7 -4 12 -4 12 0 0 3 7 0 17 -7 11
-10 45 -14 107 -14 50 0 105 -4 121 -8 l30 -9 -30 18 c-39 22 -124 34 -171 24
-21 -5 -43 -6 -48 -2 -6 4 5 10 24 13 l35 6 -35 1 c-19 0 -44 -3 -54 -7z"/>
<path d="M1183 2413 c9 -2 25 -2 35 0 9 3 1 5 -18 5 -19 0 -27 -2 -17 -5z"/>
<path d="M2778 2415 c-3 -3 -32 -7 -66 -10 -76 -5 -94 -15 -98 -50 l-3 -27 22
20 c32 28 62 42 93 42 27 0 27 -1 8 -15 -19 -14 -19 -14 1 -15 11 -1 14 -4 7
-7 -6 -2 -9 -10 -5 -16 4 -7 -2 -5 -12 3 -17 14 -18 14 -8 -4 13 -23 5 -56
-12 -56 -7 0 -16 -6 -18 -12 -3 -7 -4 4 -3 25 3 42 3 42 -18 21 -19 -18 -21
-38 -3 -28 7 4 9 3 4 -2 -5 -5 -14 -9 -19 -9 -6 0 -13 -6 -16 -14 -3 -8 0 -11
6 -7 13 7 42 -3 42 -15 0 -5 -12 -9 -26 -9 -26 0 -26 -2 -20 -42 5 -29 3 -44
-6 -51 -9 -6 -7 -7 7 -3 20 6 20 6 0 -9 -19 -15 -19 -16 3 -22 28 -7 24 -27
-6 -31 -12 -2 -22 -8 -22 -14 0 -5 7 -8 15 -4 9 3 15 -1 15 -11 0 -12 3 -13
14 -4 11 9 20 10 35 1 22 -11 27 -4 12 19 -5 8 -14 10 -21 6 -8 -5 -11 -4 -7
2 4 6 -1 29 -10 52 -15 39 -15 42 2 61 23 26 39 26 32 -1 -4 -15 -2 -19 9 -15
12 5 14 1 9 -15 -4 -13 -3 -19 2 -16 6 4 15 -5 21 -18 7 -15 8 -25 2 -25 -16
0 -11 -27 6 -34 8 -3 13 -2 10 3 -7 11 39 43 48 34 3 -4 -1 -17 -9 -30 -9 -13
-11 -23 -6 -23 5 0 28 39 52 87 23 49 44 82 47 75 2 -6 8 -10 13 -6 5 3 3 12
-5 19 -8 9 -12 24 -9 36 5 17 3 20 -7 14 -9 -5 -11 -4 -6 4 4 6 11 9 15 7 4
-3 13 -1 20 3 10 7 10 14 -3 40 -9 17 -21 31 -27 31 -6 0 -7 5 -4 10 4 6 25 9
50 6 24 -3 47 -1 50 4 7 12 55 14 55 3 -1 -19 -19 -35 -30 -28 -8 5 -11 4 -6
-3 10 -17 45 -10 64 13 9 11 13 17 8 13 -8 -7 -36 14 -36 26 0 3 10 6 23 6 12
0 29 5 37 10 23 15 -65 3 -107 -15 -35 -15 -87 -13 -123 5 -21 10 -77 20 -82
15z m272 -59 c0 -3 -4 -8 -10 -11 -5 -3 -10 -1 -10 4 0 6 5 11 10 11 6 0 10
-2 10 -4z m-267 -31 c-3 -9 -8 -14 -10 -11 -3 3 -2 9 2 15 9 16 15 13 8 -4z
m-23 -46 c-7 -11 -14 -19 -16 -16 -7 7 7 37 17 37 6 0 5 -9 -1 -21z m0 -130
c0 -6 -4 -7 -10 -4 -5 3 -10 11 -10 16 0 6 5 7 10 4 6 -3 10 -11 10 -16z"/>
<path d="M3617 2412 c-4 -5 -46 -9 -94 -10 -63 0 -104 -7 -143 -21 l-55 -21
48 3 c30 3 55 -1 68 -11 12 -8 24 -11 28 -6 3 5 17 11 31 12 14 2 27 8 28 13
2 5 13 9 24 9 13 0 18 -5 15 -14 -7 -16 19 -30 28 -15 10 16 23 0 18 -21 -3
-11 -9 -17 -14 -14 -5 3 -9 -1 -9 -9 0 -8 -9 -26 -21 -41 -11 -14 -19 -37 -17
-49 4 -34 -67 -145 -98 -153 -13 -3 -24 -10 -24 -16 0 -5 -25 -34 -55 -64 -30
-31 -55 -62 -55 -70 0 -8 -5 -14 -11 -14 -6 0 -9 -6 -7 -12 3 -7 -5 -17 -16
-23 -12 -6 -22 -20 -24 -32 -2 -14 -8 -20 -18 -16 -8 3 -14 0 -14 -6 0 -12 -9
-25 -43 -62 -10 -11 -15 -25 -11 -31 4 -7 3 -8 -4 -4 -7 4 -12 1 -12 -7 0 -8
-9 -22 -20 -32 -11 -10 -20 -24 -20 -30 0 -7 -11 -20 -25 -29 -14 -9 -25 -12
-25 -6 0 5 -5 10 -11 10 -6 0 -8 -7 -5 -15 4 -11 -3 -19 -19 -25 -14 -5 -25
-14 -25 -20 0 -5 -7 -10 -15 -10 -18 0 -20 21 -2 40 10 12 9 12 -5 1 -10 -7
-18 -19 -18 -26 0 -7 -7 -15 -15 -19 -8 -3 -15 -11 -15 -18 0 -9 3 -9 10 2 9
13 11 13 19 0 6 -9 6 -19 1 -26 -6 -6 -6 -15 -2 -19 4 -5 1 -5 -6 -1 -7 4 -10
11 -7 16 11 17 -31 16 -50 -3 -15 -14 -16 -18 -5 -15 31 7 20 -17 -12 -27 -35
-10 -58 -27 -58 -44 0 -5 -6 -14 -14 -18 -8 -4 -15 -12 -15 -18 0 -5 -10 -13
-23 -17 -16 -4 -18 -6 -5 -7 20 -1 23 -21 3 -21 -21 0 -15 -39 7 -46 11 -3 16
-12 13 -20 -4 -9 2 -14 15 -14 15 0 19 -5 15 -16 -3 -8 -2 -12 3 -9 5 3 12 1
16 -5 3 -5 2 -10 -4 -10 -20 0 1 -28 29 -40 36 -15 65 -46 51 -54 -5 -4 -13 3
-16 15 -4 11 -9 18 -11 16 -3 -2 1 -16 7 -31 13 -28 36 -31 56 -6 11 13 12 13
13 -2 0 -9 -9 -20 -21 -23 -15 -5 -17 -10 -10 -19 6 -7 8 -16 4 -19 -3 -4 3
-7 15 -7 13 0 22 -6 22 -16 0 -8 4 -13 8 -10 5 3 15 -6 22 -19 7 -13 19 -26
27 -29 8 -3 11 -1 8 4 -10 16 19 11 44 -7 13 -10 37 -33 54 -51 39 -41 69 -60
61 -37 -4 8 -1 15 5 15 6 0 11 -6 11 -14 0 -8 7 -16 15 -20 8 -3 14 -10 13
-14 -2 -5 11 -25 27 -43 55 -61 92 -121 65 -104 -21 13 -8 -7 30 -46 23 -24
42 -55 46 -74 4 -21 13 -35 25 -38 10 -3 19 -1 19 5 0 5 5 6 10 3 6 -4 8 -10
5 -14 -2 -5 7 -19 20 -31 29 -28 34 -70 8 -70 -15 0 -16 -2 -3 -9 8 -6 17 -8
21 -6 9 6 69 -52 69 -66 0 -8 -4 -8 -13 0 -8 6 -17 8 -20 4 -14 -13 -6 -23 17
-23 14 0 27 -3 29 -8 6 -11 -31 -43 -38 -32 -8 14 -26 12 -23 -1 2 -6 -3 -14
-9 -16 -8 -3 -13 5 -13 20 0 20 -4 24 -20 20 -11 -3 -25 -14 -31 -24 -5 -11
-15 -19 -22 -19 -7 0 -6 4 3 10 9 6 10 10 3 10 -6 0 -14 -4 -18 -10 -7 -11
-35 -2 -35 12 0 5 5 6 10 3 6 -3 10 -4 10 -1 0 3 -9 10 -20 16 -16 9 -27 6
-57 -14 -45 -31 -59 -23 -18 9 30 25 31 40 1 29 -9 -3 -13 -11 -9 -17 4 -6 0
-8 -10 -4 -8 3 -25 -3 -38 -14 -27 -23 -47 -25 -28 -3 7 9 9 18 3 22 -5 4 -15
17 -22 29 -10 19 -10 23 0 23 7 1 1 8 -14 16 -16 8 -28 23 -28 34 0 27 -14 25
-33 -4 -15 -23 -15 -24 8 -30 52 -13 72 -68 40 -110 -18 -23 -20 -14 -4 13 19
29 3 68 -32 80 -54 19 -147 -15 -229 -84 -24 -20 -46 -32 -49 -27 -3 5 -16 12
-29 16 -12 4 -20 11 -17 16 6 10 36 2 45 -11 8 -12 67 38 84 71 14 30 14 30
-7 15 -25 -18 -37 -19 -37 -4 0 5 6 7 13 3 9 -6 8 -3 -1 8 -8 10 -21 14 -30
11 -14 -5 -15 -3 -4 8 19 21 14 44 -12 59 -16 8 -22 18 -19 28 4 10 2 13 -5 8
-7 -4 -12 -3 -12 3 0 5 5 13 10 16 14 8 3 25 -16 25 -9 0 -13 -5 -9 -12 4 -7
1 -6 -7 3 -20 24 -58 34 -58 15 0 -9 -4 -16 -10 -16 -5 0 -16 -16 -25 -35 -9
-19 -24 -40 -33 -47 -9 -7 -13 -8 -9 -2 4 7 -2 14 -13 17 -11 3 -20 12 -20 21
0 19 49 97 67 109 7 4 13 16 13 25 0 13 -2 14 -9 3 -10 -16 -21 -2 -17 24 2
11 13 22 26 25 13 3 28 14 34 25 6 11 16 23 21 27 6 5 5 8 -2 8 -7 0 -13 6
-13 13 0 22 -69 51 -96 40 -11 -4 -12 -8 -4 -13 7 -4 8 -10 3 -13 -5 -3 -15
-2 -23 3 -12 7 -11 12 4 29 25 27 54 35 71 21 10 -8 15 -9 15 -2 0 6 -9 14
-20 17 -11 4 -17 11 -14 17 3 5 -8 2 -25 -6 -40 -21 -40 -6 0 23 27 20 30 25
15 33 -13 7 -14 13 -5 30 8 15 8 22 -1 28 -7 4 -9 13 -5 19 4 7 1 18 -5 26 -7
8 -9 26 -6 40 4 14 2 25 -4 25 -6 0 -6 9 1 24 8 17 8 29 0 44 -8 16 -6 25 9
45 13 16 16 28 10 32 -5 3 -10 -1 -10 -9 0 -29 -15 -16 -16 14 -1 27 1 29 25
25 25 -5 26 -5 4 6 -29 15 -30 33 -2 26 l21 -6 -21 23 c-28 29 -27 42 7 73 22
21 23 24 7 20 -11 -4 -27 -2 -35 4 -13 9 -12 10 2 5 12 -3 15 -1 11 10 -8 23
-27 11 -34 -22 -6 -25 -7 -23 -8 14 0 24 3 41 8 37 5 -3 12 -1 16 5 4 6 11 8
16 5 5 -4 9 -1 9 5 0 7 -6 10 -14 7 -11 -4 -14 2 -14 22 1 16 -2 33 -6 39 -3
6 -2 14 4 17 7 4 7 11 2 18 -5 7 -10 19 -10 27 0 8 -3 45 -7 81 -4 44 -3 69 4
74 6 3 11 1 11 -4 0 -6 4 -11 8 -11 5 0 9 7 9 15 0 8 -7 15 -14 15 -8 0 -11 5
-8 10 4 6 11 8 16 4 5 -3 0 11 -11 31 -25 45 -25 48 2 34 12 -6 40 -12 62 -14
22 -1 35 0 28 3 -7 2 -9 9 -5 15 4 7 0 8 -11 4 -10 -4 -36 -2 -57 4 -32 10
-39 17 -39 38 0 34 -18 99 -29 106 -12 7 -3 -378 9 -424 7 -26 6 -39 -4 -50
-14 -16 -29 -161 -17 -161 4 0 7 -46 7 -102 0 -57 4 -134 9 -173 9 -79 10
-103 7 -195 -2 -46 -5 -61 -12 -50 -15 24 -12 -132 5 -225 18 -100 18 -91 -4
-112 -26 -26 -32 -61 -21 -128 8 -51 35 -103 48 -91 2 3 13 -4 25 -15 33 -30
41 -22 12 12 -14 17 -23 34 -20 38 4 3 12 -1 18 -9 16 -22 59 -50 74 -50 7 0
13 6 13 14 0 8 5 18 12 22 8 5 9 2 4 -11 -6 -16 -2 -17 29 -12 22 4 66 -2 112
-14 70 -18 87 -19 183 -9 58 6 113 13 123 16 10 3 48 0 83 -7 61 -12 69 -11
133 11 l69 24 118 -23 c86 -16 131 -20 163 -14 24 4 79 4 123 -1 56 -7 100 -6
152 3 52 8 86 9 117 2 24 -6 69 -10 99 -10 45 0 51 2 31 10 -30 12 -22 20 26
28 20 3 38 11 40 16 4 14 -64 12 -79 -3 -6 -6 -17 -12 -23 -12 -5 0 1 9 14 19
20 15 22 21 12 37 -11 19 -11 19 -9 0 2 -10 -3 -21 -11 -24 -9 -3 -11 0 -6 7
5 9 2 9 -13 0 -12 -7 -19 -15 -17 -19 2 -3 -12 -5 -31 -5 -32 0 -50 14 -21 16
6 1 18 2 26 3 8 0 17 8 19 16 5 13 3 13 -11 1 -10 -7 -17 -9 -17 -3 0 18 -28
21 -42 4 -9 -11 -10 -14 -1 -8 9 5 12 0 10 -15 -1 -17 5 -25 23 -30 20 -5 15
-7 -22 -8 -26 -1 -50 3 -53 9 -3 5 -14 10 -23 10 -15 0 -15 -2 -2 -10 12 -8
11 -10 -7 -10 -15 0 -21 5 -17 13 4 10 -3 12 -26 9 -19 -3 -30 0 -30 8 0 10
-3 10 -14 1 -8 -7 -34 -13 -58 -14 -23 -1 -45 -5 -48 -9 -3 -3 -17 -4 -32 -1
-19 4 -25 10 -21 22 3 12 1 12 -11 -3 -25 -30 -19 -14 22 66 31 61 75 126 132
195 6 7 17 10 25 7 20 -8 19 6 -1 21 -21 15 -10 57 12 48 8 -3 14 -2 13 3 -1
5 -1 14 0 20 2 18 63 74 88 80 13 4 20 11 16 20 -3 8 0 14 7 14 6 0 8 5 5 10
-3 6 0 10 7 10 7 0 25 21 38 47 14 25 42 64 63 85 20 21 37 48 37 58 0 11 3
19 8 17 4 -1 8 1 10 5 3 8 17 25 92 107 28 29 50 59 50 66 0 8 9 10 25 7 14
-2 25 0 25 6 0 17 60 82 76 82 8 0 13 5 11 11 -1 6 6 13 15 14 31 5 77 45 71
60 -3 8 0 15 6 15 26 0 8 18 -29 29 -22 7 -38 16 -35 22 4 5 -1 12 -9 15 -9 3
-13 10 -10 15 3 5 -5 9 -18 9 -13 0 -31 9 -41 20 -9 11 -24 20 -32 20 -8 0
-15 5 -15 11 0 6 -7 9 -15 5 -10 -4 -25 8 -43 33 -28 41 -66 66 -92 62 -13 -1
-13 0 -1 8 11 7 0 23 -52 74 -36 36 -63 68 -59 72 3 3 -1 3 -10 0 -16 -6 -33
19 -23 35 3 4 -8 20 -25 33 -16 14 -30 29 -30 34 0 4 -29 39 -65 77 -47 50
-62 72 -53 78 7 4 8 8 3 8 -6 0 -19 14 -28 30 -10 17 -25 30 -33 30 -9 0 -23
7 -31 16 -14 13 -14 17 -2 25 10 6 10 9 2 9 -7 0 -13 7 -13 16 0 8 -13 27 -30
41 -16 13 -30 31 -30 38 0 16 -45 85 -63 98 -8 6 -6 7 6 3 9 -3 17 -1 17 5 0
19 46 32 70 19 20 -11 25 -10 36 4 10 15 12 15 18 1 3 -8 10 -15 17 -15 6 0 8
7 5 16 -4 10 -1 14 6 12 7 -3 15 -14 18 -26 5 -20 6 -21 39 -5 27 14 39 14 64
5 17 -7 33 -8 36 -3 9 13 48 31 68 31 13 0 9 -5 -11 -15 -16 -9 -35 -23 -42
-33 -10 -14 -8 -20 12 -41 30 -30 30 -34 -1 -67 -28 -30 -33 -57 -10 -48 8 4
15 14 15 24 0 10 7 21 16 24 8 3 13 2 10 -2 -2 -4 3 -16 11 -27 14 -19 15 -18
8 13 -4 20 -3 32 4 32 6 0 11 -4 11 -9 0 -22 84 -91 110 -90 11 0 9 5 -7 16
-27 19 -30 33 -5 33 13 0 14 2 3 9 -11 7 -11 9 0 14 9 4 7 6 -6 7 -45 5 -68
14 -112 48 -33 25 -45 49 -19 39 9 -4 16 3 20 18 4 14 16 29 27 35 20 11 20
11 4 -14 -9 -14 -15 -33 -13 -42 3 -17 4 -17 20 0 9 9 15 23 11 31 -4 11 -1
13 11 9 10 -4 18 0 22 10 8 20 24 21 24 1 0 -9 -11 -21 -25 -27 -14 -6 -25
-15 -25 -19 0 -15 35 -27 62 -22 39 8 50 53 12 53 -8 0 -14 5 -14 10 0 14 7
13 35 -6 26 -17 55 -13 55 8 0 9 -3 9 -10 -2 -7 -11 -12 -12 -20 -4 -8 8 -6
14 5 24 13 11 19 10 35 -5 20 -18 20 -18 -5 -39 -42 -36 -28 -38 23 -3 41 29
92 52 92 42 0 -2 -9 -19 -20 -39 -14 -22 -17 -36 -10 -41 6 -3 8 -10 5 -15 -3
-5 6 -30 20 -56 14 -26 25 -54 25 -62 0 -9 6 -12 16 -8 12 5 14 1 9 -17 -4
-12 -3 -17 2 -10 4 6 24 10 44 9 24 -2 36 2 36 10 0 7 -5 12 -10 11 -19 -4
-17 20 2 44 l20 24 2 -35 c1 -19 3 -27 6 -18 3 10 10 15 20 11 13 -5 13 -3 2
15 -19 30 -6 37 28 16 28 -18 28 -18 10 2 -9 11 -14 24 -10 28 4 4 1 11 -6 15
-11 7 -9 11 9 21 21 11 21 12 3 29 -16 16 -19 16 -30 2 -10 -13 -11 -10 -6 18
5 38 -16 65 -43 54 -10 -4 -13 1 -10 18 3 13 5 27 5 31 1 3 9 8 19 10 9 2 -20
5 -65 6 -70 2 -83 0 -83 -13 0 -11 -7 -15 -22 -13 -13 2 -22 9 -21 16 4 15
-73 17 -82 2 -11 -17 -76 -30 -97 -19 -11 6 -52 11 -91 11 -40 1 -80 5 -91 11
-13 6 -21 5 -27 -4 -7 -12 -9 -12 -9 0 0 11 -10 12 -47 6 -53 -8 -211 -8 -344
1 -51 4 -89 2 -92 -4z m976 -9 c-7 -2 -19 -2 -25 0 -7 3 -2 5 12 5 14 0 19 -2
13 -5z m-93 -52 c0 -5 -7 -12 -16 -15 -8 -3 -12 -2 -9 3 3 5 -3 12 -12 14 -11
3 -8 5 10 6 15 0 27 -3 27 -8z m-660 -11 c0 -5 -2 -10 -4 -10 -3 0 -8 5 -11
10 -3 6 -1 10 4 10 6 0 11 -4 11 -10z m474 -163 c-6 -16 -34 -13 -34 4 0 4 7
6 15 3 8 -4 15 -1 15 7 0 7 2 10 5 7 3 -3 3 -12 -1 -21z m-1228 -602 c-11 -8
-25 -15 -30 -15 -6 1 0 7 14 15 32 19 40 18 16 0z m-76 -99 c0 -3 -4 -8 -10
-11 -5 -3 -10 -1 -10 4 0 6 5 11 10 11 6 0 10 -2 10 -4z m-130 -126 c0 -5 -2
-10 -4 -10 -3 0 -8 5 -11 10 -3 6 -1 10 4 10 6 0 11 -4 11 -10z m1550 -220 c0
-5 -4 -10 -10 -10 -5 0 -10 5 -10 10 0 6 5 10 10 10 6 0 10 -4 10 -10z m-1750
-160 c0 -5 -2 -10 -4 -10 -3 0 -8 5 -11 10 -3 6 -1 10 4 10 6 0 11 -4 11 -10z
m-7 -45 c4 -8 2 -17 -3 -20 -6 -4 -10 3 -10 14 0 25 6 27 13 6z m1497 -115 c0
-5 -2 -10 -4 -10 -3 0 -8 5 -11 10 -3 6 -1 10 4 10 6 0 11 -4 11 -10z m-1423
-56 c-3 -3 -12 -4 -19 -1 -8 3 -5 6 6 6 11 1 17 -2 13 -5z m-19 -50 c-2 -25
-23 -33 -31 -11 -3 8 -8 9 -15 2 -8 -8 -7 -18 3 -39 20 -39 19 -90 -2 -107
-15 -11 -16 -11 -5 1 16 19 15 31 -3 24 -19 -8 -19 3 -1 22 12 11 13 21 4 44
-5 17 -14 28 -18 25 -21 -13 -4 42 19 62 29 26 52 15 49 -23z m42 19 c0 -22
-17 -49 -25 -41 -8 8 5 58 16 58 5 0 9 -8 9 -17z m-100 -113 c0 -5 -4 -10 -10
-10 -5 0 -10 5 -10 10 0 6 5 10 10 10 6 0 10 -4 10 -10z m49 -230 c10 -5 21
-16 24 -24 4 -11 0 -12 -21 -7 -15 4 -28 15 -30 24 -4 19 2 21 27 7z m165 -25
c-4 -8 -10 -12 -15 -9 -11 6 -2 24 11 24 5 0 7 -7 4 -15z m269 2 c4 3 7 1 7
-5 0 -11 -6 -13 -50 -16 -8 -1 -20 -4 -27 -9 -6 -4 -13 -1 -16 5 -5 16 54 39
69 27 6 -5 14 -6 17 -2z m-98 -27 c3 -5 1 -10 -4 -10 -6 0 -11 5 -11 10 0 6 2
10 4 10 3 0 8 -4 11 -10z m-185 -10 c0 -5 -5 -10 -11 -10 -5 0 -7 5 -4 10 3 6
8 10 11 10 2 0 4 -4 4 -10z m288 -4 c-7 -8 -15 -12 -18 -11 -4 2 -11 -5 -18
-15 -10 -17 -8 -21 21 -29 32 -9 32 -9 -13 -10 -26 -1 -51 -6 -58 -13 -7 -7
-12 -8 -12 -2 0 5 9 15 20 22 11 7 20 19 20 27 0 8 12 21 28 29 34 19 46 20
30 2z m-424 -8 c-3 -4 -17 -8 -32 -7 -23 0 -24 2 -7 8 25 10 45 10 39 -1z
m306 -6 c0 -5 10 -14 23 -20 17 -8 18 -11 5 -11 -9 -1 -20 4 -23 9 -10 17 -55
12 -55 -6 0 -14 3 -14 15 -4 12 10 15 10 15 -4 0 -20 -36 -21 -44 -1 -3 8 2
21 10 30 16 16 54 21 54 7z m350 -12 c0 -5 -5 -10 -11 -10 -5 0 -7 5 -4 10 3
6 8 10 11 10 2 0 4 -4 4 -10z"/>
<path d="M2692 719 c2 -6 8 -10 13 -10 5 0 11 4 13 10 2 6 -4 11 -13 11 -9 0
-15 -5 -13 -11z"/>
<path d="M4515 2410 c3 -5 8 -10 11 -10 2 0 4 5 4 10 0 6 -5 10 -11 10 -5 0
-7 -4 -4 -10z"/>
<path d="M248 2403 c-10 -2 -18 -9 -18 -14 0 -6 10 -5 23 2 37 20 36 23 -5 12z"/>
<path d="M975 2400 c-22 -3 -49 -11 -60 -18 -20 -11 -19 -11 2 -12 16 0 21 -4
17 -15 -4 -8 -11 -15 -18 -15 -15 0 -16 -42 -2 -53 7 -5 3 -7 -9 -5 -12 2 -19
-2 -17 -9 1 -7 -2 -13 -7 -13 -15 0 -71 -92 -71 -116 0 -12 -6 -25 -12 -28
-10 -5 -10 -7 0 -12 17 -8 15 -24 -2 -24 -11 0 -14 -11 -13 -40 2 -22 -1 -40
-5 -40 -8 0 -34 -117 -31 -140 1 -8 5 -37 8 -65 4 -27 9 -53 12 -57 2 -5 0
-15 -6 -22 -15 -18 14 -57 37 -50 14 5 14 4 2 -4 -8 -6 -28 -8 -45 -5 -25 5
-28 3 -17 -8 16 -17 16 -34 0 -22 -14 11 -78 -2 -78 -16 0 -4 -11 -6 -25 -3
-13 2 -33 1 -42 -3 -10 -5 -24 -7 -32 -6 -7 1 -10 -2 -6 -8 3 -6 -1 -11 -9
-11 -9 0 -16 -7 -16 -15 0 -8 -6 -15 -14 -15 -8 0 -18 -10 -22 -22 -6 -21 -7
-21 -20 -3 -8 10 -15 15 -15 9 -1 -5 -2 -15 -3 -23 0 -8 -18 -23 -38 -33 -21
-11 -38 -26 -38 -34 0 -8 -10 -14 -22 -15 -17 -1 -14 -4 12 -12 l35 -11 -30
-4 c-16 -2 -34 -8 -40 -14 -7 -7 -3 -8 13 -3 13 4 22 2 22 -4 0 -6 -4 -11 -10
-11 -5 0 -10 -7 -10 -15 0 -7 -6 -18 -13 -22 -6 -4 -13 -15 -14 -23 -1 -8 -9
-35 -18 -60 -9 -25 -19 -69 -22 -98 -4 -36 -9 -49 -17 -43 -8 6 -11 1 -12 -17
0 -15 -3 -47 -7 -71 -4 -29 -2 -50 5 -59 10 -11 8 -17 -7 -28 -10 -8 -15 -14
-10 -14 5 0 -2 -12 -16 -27 -25 -27 -24 -28 29 -6 17 7 15 -12 -3 -27 -16 -13
-11 -31 8 -29 24 3 35 -1 41 -16 3 -8 2 -14 -2 -14 -29 5 -51 -3 -46 -15 3 -9
12 -12 21 -9 11 4 14 2 9 -5 -4 -7 -4 -21 -1 -32 5 -16 12 -19 38 -15 17 4 37
11 44 17 7 6 13 7 13 3 0 -4 -7 -13 -15 -19 -10 -8 -12 -15 -5 -26 9 -13 11
-13 20 0 7 12 12 12 21 3 10 -10 9 -14 -4 -19 -9 -3 -17 -10 -17 -15 0 -4 7
-6 15 -3 8 4 15 1 15 -5 0 -6 7 -8 15 -5 14 6 76 -26 103 -53 8 -8 28 -12 48
-10 19 3 34 1 34 -4 0 -5 7 -6 15 -3 8 4 15 2 15 -4 0 -5 10 -10 23 -10 12 0
37 -1 55 -3 19 -1 40 5 50 14 14 13 21 14 31 4 9 -9 13 -9 20 1 6 11 68 22
131 23 8 0 25 6 38 12 16 8 25 8 30 1 4 -6 17 -13 30 -17 18 -4 22 -2 18 9 -3
8 1 14 9 14 8 0 15 -6 15 -13 0 -8 7 -14 15 -14 8 0 15 7 15 14 0 12 3 11 16
-1 8 -9 22 -16 30 -16 8 0 14 -5 14 -12 0 -20 -41 -98 -51 -98 -6 0 -8 -4 -5
-9 8 -12 -20 -22 -39 -15 -9 4 -15 0 -15 -10 0 -9 -5 -16 -11 -16 -6 0 -8 -7
-5 -16 3 -9 2 -12 -5 -9 -6 4 -9 1 -8 -6 5 -23 -32 -84 -41 -69 -4 7 -13 9
-21 5 -15 -10 21 -28 69 -33 6 -1 12 -7 12 -13 0 -5 -4 -7 -10 -4 -5 3 -38 2
-72 -2 l-63 -8 70 -6 c49 -4 17 -7 -110 -9 -249 -4 -254 -3 -269 10 -9 7 -16
7 -20 1 -3 -5 0 -11 6 -14 7 -2 -5 -5 -27 -5 -21 0 -41 -5 -43 -11 -2 -6 -10
-11 -18 -11 -9 0 -12 5 -9 10 4 6 -6 10 -24 10 -16 0 -33 -5 -37 -11 -4 -8 1
-9 16 -4 15 5 20 4 16 -3 -10 -16 58 -26 82 -13 14 7 23 8 27 1 3 -5 16 -10
28 -9 21 0 21 1 2 9 -27 12 -26 12 195 15 1102 17 1092 16 1077 31 -3 3 -115
6 -249 6 -133 0 -220 4 -193 7 36 5 43 8 25 11 l-25 5 22 22 c27 27 36 103 12
103 -8 0 -7 -6 2 -17 10 -14 8 -13 -9 2 -13 11 -19 21 -13 23 20 7 11 33 -19
59 -17 14 -29 28 -26 31 3 3 12 -1 21 -8 13 -11 14 -10 9 4 -7 17 -44 23 -44
6 0 -6 7 -22 16 -35 23 -36 9 -31 -16 6 -21 29 -21 31 -5 43 10 7 15 18 11 24
-3 5 0 13 6 15 7 3 2 6 -12 7 -24 1 -24 1 -6 15 18 13 17 15 -4 45 l-22 31 20
20 c12 10 28 19 36 19 16 0 30 -27 15 -32 -5 -2 1 -9 13 -17 21 -13 22 -13 9
2 -12 15 -11 17 2 17 21 0 89 -31 102 -47 12 -14 56 -20 73 -10 7 5 15 2 18
-8 5 -12 9 -13 21 -3 11 9 16 9 22 0 8 -14 144 -7 149 8 2 5 15 10 28 10 13 0
32 8 42 17 9 10 23 18 30 19 46 4 47 4 33 13 -9 6 -10 11 -2 15 6 4 15 5 20 2
5 -3 11 4 15 17 5 18 8 19 15 7 9 -12 11 -12 16 2 4 9 20 22 36 28 16 7 26 16
23 21 -3 5 2 6 10 3 21 -8 43 6 26 16 -9 6 -7 13 9 29 l21 21 1 -23 c1 -21 1
-21 8 3 4 14 4 26 -1 28 -15 6 -8 21 7 16 10 -4 15 0 15 12 0 16 -2 17 -10 4
-5 -8 -10 -10 -10 -5 0 6 -7 1 -15 -9 -32 -42 -20 -8 16 48 39 60 51 68 25 18
-13 -26 -13 -28 5 -29 11 -1 17 2 14 8 -4 5 -1 9 5 9 7 0 9 8 5 19 -4 12 0 21
11 25 11 4 15 14 12 31 -3 14 -2 25 1 25 3 0 7 27 8 60 1 44 -2 58 -10 53 -8
-4 -8 -2 1 9 10 12 10 18 -2 27 -7 6 -16 31 -19 54 -3 24 -17 67 -31 97 -16
35 -22 57 -15 61 6 3 1 9 -10 12 -12 3 -21 10 -21 16 0 6 8 8 18 4 13 -5 12
-1 -6 19 -12 13 -20 27 -17 30 3 2 -7 17 -22 31 -16 15 -36 35 -45 45 -19 20
-113 57 -140 55 -10 -1 -18 3 -18 8 0 5 -12 7 -27 4 -24 -6 -26 -5 -12 7 23
19 0 38 -40 33 -23 -2 -31 1 -31 11 0 8 -5 12 -10 9 -6 -4 -8 -16 -5 -28 5
-19 5 -20 -5 -4 -6 9 -8 22 -5 27 3 6 1 10 -5 10 -7 0 -10 7 -6 15 4 11 -2 15
-22 15 l-27 1 27 17 c15 9 27 23 25 32 -1 8 4 14 11 12 9 -2 11 9 7 40 -5 35
-2 47 15 66 11 12 16 22 10 22 -5 0 -10 7 -10 16 0 8 -5 12 -10 9 -6 -3 -15 6
-20 21 -8 19 -8 29 0 34 6 4 8 14 4 23 -4 12 2 20 21 27 15 6 30 8 35 5 10 -6
35 23 26 32 -3 3 -6 1 -6 -5 0 -7 -5 -12 -11 -12 -5 0 -8 4 -5 9 3 5 -15 12
-42 16 l-47 6 -18 60 c-9 32 -22 59 -27 59 -6 0 -10 7 -10 16 0 8 -12 31 -26
50 -21 27 -31 33 -50 28 -24 -6 -35 11 -11 19 9 3 9 7 -2 20 -7 10 -18 17 -23
17 -6 0 -6 -6 1 -14 7 -9 8 -17 3 -20 -6 -3 -13 1 -16 10 -3 8 -10 12 -16 9
-5 -3 -10 -1 -10 4 0 6 -7 11 -15 11 -8 0 -15 4 -15 9 0 6 -17 12 -37 14 -21
2 51 4 160 5 123 1 197 6 197 12 0 6 -71 10 -192 11 -106 0 -290 1 -408 2
-118 1 -233 0 -255 -3z m442 -26 c-3 -3 -12 -4 -19 -1 -8 3 -5 6 6 6 11 1 17
-2 13 -5z m-389 -17 c9 -10 4 -12 -23 -9 -19 2 -32 8 -29 13 8 13 40 11 52 -4z
m-180 -252 c-6 -14 -15 -25 -20 -25 -9 0 -4 14 15 38 15 19 18 14 5 -13z m859
-177 c-2 -13 -4 -3 -4 22 0 25 2 35 4 23 2 -13 2 -33 0 -45z m33 47 c0 -8 -4
-15 -10 -15 -5 0 -10 7 -10 15 0 8 5 15 10 15 6 0 10 -7 10 -15z m24 -86 c-3
-5 -10 -7 -15 -3 -5 3 -7 10 -3 15 3 5 10 7 15 3 5 -3 7 -10 3 -15z m-35 -12
c12 -15 12 -17 -3 -11 -9 3 -16 13 -16 22 0 8 1 13 3 11 1 -2 9 -12 16 -22z
m11 -187 c0 -5 -7 -10 -15 -10 -8 0 -15 5 -15 10 0 6 7 10 15 10 8 0 15 -4 15
-10z m10 -34 c0 -2 -7 -7 -16 -10 -8 -3 -12 -2 -9 4 6 10 25 14 25 6z m266
-111 c1 -8 -2 -15 -7 -15 -5 0 -9 10 -9 22 0 23 12 17 16 -7z m109 -65 c3 -5
1 -10 -4 -10 -6 0 -11 5 -11 10 0 6 2 10 4 10 3 0 8 -4 11 -10z m-1854 -473
c-10 -9 -11 -8 -5 6 3 10 9 15 12 12 3 -3 0 -11 -7 -18z m1783 -222 c-10 -8
-23 -14 -29 -14 -5 -1 1 8 15 19 14 10 27 17 29 14 3 -2 -4 -11 -15 -19z
m-1724 5 c0 -5 -2 -10 -4 -10 -3 0 -8 5 -11 10 -3 6 -1 10 4 10 6 0 11 -4 11
-10z m785 -100 c3 -5 2 -10 -4 -10 -5 0 -13 5 -16 10 -3 6 -2 10 4 10 5 0 13
-4 16 -10z m-15 -29 c0 -5 -7 -11 -15 -15 -9 -3 -15 0 -15 9 0 8 7 15 15 15 8
0 15 -4 15 -9z m60 5 c0 -3 -4 -8 -10 -11 -5 -3 -10 -1 -10 4 0 6 5 11 10 11
6 0 10 -2 10 -4z m451 -19 c-10 -9 -11 -8 -5 6 3 10 9 15 12 12 3 -3 0 -11 -7
-18z m-261 3 c0 -5 -5 -10 -11 -10 -5 0 -7 5 -4 10 3 6 8 10 11 10 2 0 4 -4 4
-10z m-310 -15 c0 -8 -4 -15 -10 -15 -5 0 -10 7 -10 15 0 8 5 15 10 15 6 0 10
-7 10 -15z m-300 -49 c0 -2 -7 -6 -15 -10 -8 -3 -15 -1 -15 4 0 6 7 10 15 10
8 0 15 -2 15 -4z m357 -312 c-3 -3 -12 -4 -19 -1 -8 3 -5 6 6 6 11 1 17 -2 13
-5z"/>
<path d="M3139 2398 c-28 -11 -15 -26 17 -20 16 3 30 -1 36 -9 7 -11 11 -11
15 -1 2 6 14 12 26 12 20 0 20 0 1 -15 -18 -13 -18 -14 4 -8 51 13 30 39 -35
45 -24 2 -52 0 -64 -4z"/>
<path d="M4710 2401 c0 -5 7 -12 16 -15 21 -8 21 -8 21 9 0 8 -9 15 -19 15
-10 0 -18 -4 -18 -9z"/>
<path d="M182 2380 c-7 -11 -11 -20 -9 -20 2 0 14 9 27 20 15 13 18 20 9 20
-8 0 -20 -9 -27 -20z"/>
<path d="M510 2390 c-8 -5 -10 -10 -5 -10 6 0 17 5 25 10 8 5 11 10 5 10 -5 0
-17 -5 -25 -10z"/>
<path d="M1995 2390 c3 -5 8 -10 11 -10 2 0 4 5 4 10 0 6 -5 10 -11 10 -5 0
-7 -4 -4 -10z"/>
<path d="M2133 2388 c-42 -11 -57 -37 -42 -75 5 -15 16 -31 22 -35 7 -4 -3 -8
-23 -8 -19 0 -40 -4 -47 -8 -18 -12 -35 -64 -28 -90 4 -17 2 -22 -6 -16 -8 5
-9 3 -5 -5 5 -7 15 -10 23 -6 13 4 13 3 4 -9 -9 -11 -7 -15 7 -18 11 -3 27 -1
37 5 15 8 17 7 12 -6 -4 -11 -2 -14 9 -10 7 3 14 0 14 -7 0 -18 109 -2 141 21
24 17 61 88 39 74 -5 -3 -12 6 -16 20 -3 14 -19 33 -34 41 -27 16 -27 18 -12
44 32 55 -24 107 -95 88z m138 -231 c-10 -9 -11 -8 -5 6 3 10 9 15 12 12 3 -3
0 -11 -7 -18z m-62 -26 c8 -5 9 -11 3 -15 -5 -3 -15 1 -22 9 -14 16 -3 20 19
6z"/>
<path d="M259 2370 c-13 -10 -18 -19 -11 -20 6 0 21 9 32 20 26 26 9 26 -21 0z"/>
<path d="M3088 2383 c7 -3 16 -2 19 1 4 3 -2 6 -13 5 -11 0 -14 -3 -6 -6z"/>
<path d="M292 2360 c-17 -11 -42 -19 -55 -17 -18 2 -22 -3 -21 -23 0 -14 3
-32 5 -40 2 -9 -2 -14 -11 -12 -12 3 -12 1 -3 -9 9 -9 17 -8 37 5 36 23 32 10
-9 -28 -19 -19 -35 -29 -35 -23 0 5 -7 4 -15 -3 -15 -13 -10 -35 6 -25 11 7
-10 -45 -24 -60 -7 -7 -7 -6 -3 2 4 7 2 21 -3 30 -9 15 -10 12 -11 -15 0 -25
6 -35 25 -44 14 -6 25 -18 25 -27 0 -11 10 -17 30 -18 27 -2 29 0 20 17 -6 11
-15 20 -20 20 -16 0 -43 61 -32 72 6 6 13 -2 20 -21 6 -17 14 -31 17 -31 3 0
3 5 -1 12 -4 7 -3 8 4 4 6 -4 9 -13 6 -20 -3 -7 2 -16 10 -19 9 -4 16 -13 16
-21 0 -7 11 -16 24 -18 17 -4 23 -1 19 9 -4 10 6 13 38 13 37 0 48 5 87 46 38
41 43 50 38 78 -6 31 -40 65 -64 66 -9 0 -10 5 -2 19 16 30 12 50 -15 76 -29
30 -59 31 -103 5z m-38 -39 c3 -5 0 -11 -8 -14 -15 -6 -26 1 -26 15 0 11 27
10 34 -1z"/>
<path d="M858 2363 c6 -2 18 -2 25 0 6 3 1 5 -13 5 -14 0 -19 -2 -12 -5z"/>
<path d="M2260 2365 c0 -5 5 -17 10 -25 5 -8 10 -10 10 -5 0 6 -5 17 -10 25
-5 8 -10 11 -10 5z"/>
<path d="M3287 2350 c3 -11 9 -20 14 -20 5 0 5 7 2 17 -5 12 -3 14 7 8 9 -5
11 -4 6 3 -12 20 -35 14 -29 -8z"/>
<path d="M186 2343 c-6 -14 -5 -15 5 -6 7 7 10 15 7 18 -3 3 -9 -2 -12 -12z"/>
<path d="M747 2340 c3 -11 9 -17 14 -14 5 3 7 9 4 14 -3 5 3 11 12 13 12 3 9
5 -9 6 -21 1 -25 -3 -21 -19z"/>
<path d="M2659 2348 c-8 -7 -21 -22 -29 -33 -8 -11 0 -7 18 9 18 17 32 31 32
33 0 6 -6 3 -21 -9z"/>
<path d="M2910 2350 c0 -5 5 -10 11 -10 5 0 7 5 4 10 -3 6 -8 10 -11 10 -2 0
-4 -4 -4 -10z"/>
<path d="M3095 2350 c-3 -5 -1 -10 4 -10 6 0 11 5 11 10 0 6 -2 10 -4 10 -3 0
-8 -4 -11 -10z"/>
<path d="M2050 2335 c-11 -13 -10 -14 4 -9 9 3 16 10 16 15 0 13 -6 11 -20 -6z"/>
<path d="M2956 2333 c-6 -14 -5 -15 5 -6 7 7 10 15 7 18 -3 3 -9 -2 -12 -12z"/>
<path d="M2312 2310 c0 -14 2 -19 5 -12 2 6 2 18 0 25 -3 6 -5 1 -5 -13z"/>
<path d="M3860 2315 c-8 -9 -8 -15 -2 -15 6 0 14 5 17 10 10 15 23 12 29 -7 4
-14 4 -14 3 2 -3 25 -30 31 -47 10z"/>
<path d="M169 2298 c0 -7 -2 -25 -4 -40 -2 -15 0 -30 4 -32 4 -3 8 15 8 40 1
24 -1 44 -3 44 -2 0 -4 -6 -5 -12z"/>
<path d="M3162 2296 c7 -8 15 -12 17 -11 5 6 -10 25 -20 25 -5 0 -4 -6 3 -14z"/>
<path d="M4802 2280 c0 -14 2 -19 5 -12 2 6 2 18 0 25 -3 6 -5 1 -5 -13z"/>
<path d="M142 2270 c0 -14 2 -19 5 -12 2 6 2 18 0 25 -3 6 -5 1 -5 -13z"/>
<path d="M4440 2265 c-7 -9 -11 -17 -9 -20 3 -2 10 5 17 15 14 24 10 26 -8 5z"/>
<path d="M4251 2261 c-11 -7 -7 -13 17 -25 34 -17 56 -22 32 -6 -12 8 -12 10
5 10 16 0 15 3 -9 15 -33 18 -28 17 -45 6z"/>
<path d="M4120 2249 c0 -5 5 -7 10 -4 6 3 10 8 10 11 0 2 -4 4 -10 4 -5 0 -10
-5 -10 -11z"/>
<path d="M4342 2244 c-7 -8 -8 -14 -3 -14 10 0 25 19 20 25 -2 1 -10 -3 -17
-11z"/>
<path d="M4158 2243 c7 -3 16 -2 19 1 4 3 -2 6 -13 5 -11 0 -14 -3 -6 -6z"/>
<path d="M4791 2227 c-13 -21 -12 -21 5 -5 10 10 16 20 13 22 -3 3 -11 -5 -18
-17z"/>
<path d="M4851 2224 c0 -11 3 -14 6 -6 3 7 2 16 -1 19 -3 4 -6 -2 -5 -13z"/>
<path d="M3030 2219 c0 -5 5 -7 10 -4 6 3 10 8 10 11 0 2 -4 4 -10 4 -5 0 -10
-5 -10 -11z"/>
<path d="M3140 2200 c-12 -7 -10 -9 7 -7 12 0 19 5 17 9 -6 10 -6 10 -24 -2z"/>
<path d="M4371 2184 c0 -11 3 -14 6 -6 3 7 2 16 -1 19 -3 4 -6 -2 -5 -13z"/>
<path d="M4420 2180 c-9 -6 -10 -10 -3 -10 6 0 15 5 18 10 8 12 4 12 -15 0z"/>
<path d="M3505 2160 c-3 -5 -2 -10 4 -10 5 0 13 5 16 10 3 6 2 10 -4 10 -5 0
-13 -4 -16 -10z"/>
<path d="M4851 2154 c0 -11 3 -14 6 -6 3 7 2 16 -1 19 -3 4 -6 -2 -5 -13z"/>
<path d="M2682 2110 c17 -27 37 -33 45 -14 7 18 -12 34 -40 34 -15 0 -15 -3
-5 -20z"/>
<path d="M4280 2123 c0 -6 -11 -8 -25 -5 -14 2 -25 0 -25 -5 0 -13 48 -15 56
-2 3 6 3 13 0 16 -3 4 -6 2 -6 -4z"/>
<path d="M2316 2097 c3 -10 9 -15 12 -12 3 3 0 11 -7 18 -10 9 -11 8 -5 -6z"/>
<path d="M4736 2084 c-15 -38 -5 -53 24 -34 13 9 13 11 0 20 -8 5 -11 10 -7
10 4 0 19 -7 32 -16 23 -15 25 -15 25 0 0 9 -8 16 -19 16 -11 0 -23 5 -26 10
-9 15 -22 12 -29 -6z"/>
<path d="M4575 2069 c-4 -6 -5 -12 -2 -15 2 -3 7 2 10 11 7 17 1 20 -8 4z"/>
<path d="M4634 2065 c-10 -8 -14 -15 -8 -15 6 0 17 7 24 15 16 19 9 19 -16 0z"/>
<path d="M153 2063 c-10 -3 -13 -37 -13 -121 1 -101 3 -113 13 -89 10 23 12
-8 10 -170 -1 -109 -2 -313 -1 -453 1 -351 -1 -430 -15 -469 -9 -27 -9 -35 1
-38 6 -3 12 -9 12 -14 0 -6 -5 -7 -12 -3 -8 5 -9 -4 -5 -32 4 -21 7 -49 7 -62
0 -13 4 -21 9 -18 4 3 6 -6 3 -19 -3 -20 -1 -24 12 -19 14 5 15 3 6 -22 -6
-15 -8 -34 -6 -41 3 -8 1 -11 -5 -8 -6 4 -8 -2 -6 -17 2 -12 2 -18 0 -11 -2 7
-11 9 -19 6 -20 -7 -19 -124 2 -164 20 -39 28 -32 13 10 -8 24 -9 39 0 57 16
35 25 30 39 -22 11 -39 15 -44 27 -34 20 16 32 5 16 -14 -7 -8 -10 -19 -7 -25
11 -17 77 -33 112 -28 41 7 98 65 82 84 -7 9 -7 13 0 13 6 0 9 7 5 16 -3 8
-12 13 -19 10 -23 -9 -16 12 9 25 49 27 61 71 27 107 -23 24 -69 29 -89 9 -10
-10 -12 -5 -9 23 3 32 1 35 -25 38 -26 3 -27 2 -18 -17 22 -40 15 -48 -34 -37
-51 12 -54 20 -22 54 19 22 20 24 2 14 -14 -8 -27 -7 -47 4 -26 14 -39 44 -19
44 10 0 24 31 16 38 -2 3 -13 -6 -24 -19 l-20 -24 16 44 c11 28 14 46 7 48
-19 6 -3 73 23 93 14 11 20 20 13 20 -7 0 -19 -8 -26 -17 -12 -17 -13 -16 -14
4 0 12 6 24 13 26 9 4 9 7 -1 15 -10 7 -12 112 -11 508 2 514 -1 596 -20 602
-6 2 -8 8 -5 13 4 6 11 6 19 -1 16 -14 35 -5 35 16 0 8 -9 14 -20 14 -22 0
-26 10 -9 27 20 20 0 38 -28 26z m17 -18 c-7 -9 -15 -13 -19 -10 -3 3 1 10 9
15 21 14 24 12 10 -5z m30 -55 c0 -5 -2 -10 -4 -10 -3 0 -8 5 -11 10 -3 6 -1
10 4 10 6 0 11 -4 11 -10z m-30 -1234 c0 -3 -4 -8 -10 -11 -5 -3 -10 -1 -10 4
0 6 5 11 10 11 6 0 10 -2 10 -4z m0 -76 c0 -5 -5 -10 -11 -10 -5 0 -7 5 -4 10
3 6 8 10 11 10 2 0 4 -4 4 -10z m45 -320 c3 -5 1 -10 -4 -10 -6 0 -11 5 -11
10 0 6 2 10 4 10 3 0 8 -4 11 -10z m96 -108 c-7 -2 -18 1 -23 6 -8 8 -4 9 13
5 13 -4 18 -8 10 -11z"/>
<path d="M4705 2050 c-3 -5 -3 -10 1 -10 4 0 0 -8 -8 -17 -14 -17 -17 -81 -4
-102 7 -10 56 -2 56 10 0 14 -20 21 -33 11 -9 -8 -13 -2 -14 21 -2 31 -2 31
14 12 l16 -20 -8 20 c-5 11 -9 35 -9 53 0 35 -2 37 -11 22z"/>
<path d="M2612 2015 c0 -16 2 -22 5 -12 2 9 2 23 0 30 -3 6 -5 -1 -5 -18z"/>
<path d="M2669 2022 c13 -9 13 -13 0 -28 -12 -15 -12 -17 1 -12 8 2 15 13 15
23 0 10 -7 20 -15 22 -13 4 -13 3 -1 -5z"/>
<path d="M2810 2026 c0 -2 7 -9 15 -16 9 -7 15 -8 15 -2 0 5 -7 12 -15 16 -8
3 -15 4 -15 2z"/>
<path d="M4581 2021 c-8 -5 -9 -11 -3 -15 5 -3 12 1 16 9 6 17 6 18 -13 6z"/>
<path d="M4623 2003 c8 -9 20 -12 26 -9 19 12 12 24 -15 24 -23 0 -24 -2 -11
-15z"/>
<path d="M4730 2010 c1 -8 7 -24 15 -34 15 -20 15 -20 16 0 0 18 1 18 9 -1 7
-17 9 -15 9 13 1 32 -13 44 -22 20 -4 -10 -8 -9 -16 2 -10 13 -11 13 -11 0z"/>
<path d="M2857 1989 c-24 -14 -23 -33 2 -20 16 9 17 7 13 -14 -5 -27 18 -86
30 -79 5 3 5 17 2 31 -4 16 -2 29 7 35 10 7 8 8 -8 3 -18 -5 -21 -2 -18 13 5
28 -7 42 -28 31z"/>
<path d="M2295 1980 c3 -5 8 -10 11 -10 2 0 4 5 4 10 0 6 -5 10 -11 10 -5 0
-7 -4 -4 -10z"/>
<path d="M2638 1985 c-3 -6 0 -18 7 -28 11 -15 14 -16 25 -2 11 13 10 14 -3 9
-10 -3 -17 1 -19 13 -2 10 -6 13 -10 8z"/>
<path d="M4659 1978 c0 -7 -2 -26 -4 -42 -3 -20 -1 -26 6 -19 13 13 18 73 7
73 -4 0 -8 -6 -9 -12z"/>
<path d="M2780 1970 c0 -17 30 -24 43 -11 9 9 8 11 -5 6 -11 -4 -18 -2 -18 4
0 6 -4 11 -10 11 -5 0 -10 -5 -10 -10z"/>
<path d="M4623 1969 c-7 -9 -9 -20 -3 -29 12 -19 22 -7 18 21 -2 19 -5 20 -15
8z"/>
<path d="M4542 1945 c-7 -8 -9 -15 -4 -15 5 0 15 7 22 15 16 19 -1 19 -18 0z"/>
<path d="M4790 1930 c0 -12 -4 -18 -10 -15 -5 3 -10 -1 -10 -9 0 -9 4 -16 9
-16 12 0 9 -33 -4 -43 -6 -6 -6 -10 3 -14 8 -3 12 -29 13 -76 0 -50 3 -66 9
-52 12 28 12 232 0 240 -5 3 -10 -3 -10 -15z"/>
<path d="M2755 1909 c1 -18 8 -35 15 -37 9 -3 11 3 6 24 -11 43 -24 51 -21 13z"/>
<path d="M2920 1930 c-8 -5 -12 -12 -9 -15 4 -3 12 1 19 10 14 17 11 19 -10 5z"/>
<path d="M4586 1924 c-8 -21 -4 -25 14 -14 11 7 12 12 4 20 -8 8 -13 7 -18 -6z"/>
<path d="M2690 1910 c0 -5 -7 -7 -15 -4 -9 4 -15 0 -15 -8 0 -17 32 -20 42 -4
11 15 10 26 -2 26 -5 0 -10 -4 -10 -10z"/>
<path d="M2930 1895 c0 -8 -9 -24 -20 -35 -18 -18 -18 -24 3 -21 4 0 7 -9 8
-21 0 -22 1 -22 11 2 6 14 10 31 9 39 -1 7 2 10 8 6 7 -4 11 4 11 19 0 16 -6
26 -15 26 -8 0 -15 -7 -15 -15z"/>
<path d="M4700 1900 c-8 -5 -23 -7 -32 -4 -10 3 -18 1 -18 -4 0 -15 31 -23 45
-12 7 6 21 8 31 4 11 -3 15 -2 9 3 -5 4 -12 11 -15 15 -3 4 -12 3 -20 -2z"/>
<path d="M2296 1759 c-4 -72 -5 -133 -2 -136 3 -3 10 6 16 21 12 33 14 233 1
240 -4 3 -11 -53 -15 -125z"/>
<path d="M2719 1873 c-13 -16 -12 -17 4 -4 16 13 21 21 13 21 -2 0 -10 -8 -17
-17z"/>
<path d="M4560 1880 c-13 -8 -12 -10 3 -10 9 0 17 5 17 10 0 12 -1 12 -20 0z"/>
<path d="M4694 1866 c-5 -13 -9 -14 -20 -5 -9 7 -14 8 -14 1 0 -14 24 -22 51
-15 15 4 20 3 15 -5 -4 -7 -3 -12 3 -12 5 0 13 5 16 10 3 6 1 10 -5 10 -6 0
-8 6 -4 13 4 6 4 9 -1 5 -4 -4 -14 -3 -21 3 -11 9 -15 7 -20 -5z"/>
<path d="M2676 1849 c12 -13 20 -16 22 -9 3 7 -2 16 -9 21 -25 16 -32 9 -13
-12z"/>
<path d="M4618 1845 c15 -21 32 -31 70 -40 24 -6 11 10 -21 26 -17 9 -31 21
-30 26 1 5 -7 10 -18 10 -18 2 -18 1 -1 -22z"/>
<path d="M2726 1845 c-3 -8 -1 -15 4 -15 13 0 22 18 11 24 -5 3 -11 -1 -15 -9z"/>
<path d="M2776 1823 c-6 -14 -5 -15 5 -6 7 7 10 15 7 18 -3 3 -9 -2 -12 -12z"/>
<path d="M2760 1730 c0 -5 5 -10 10 -10 6 0 10 5 10 10 0 6 -4 10 -10 10 -5 0
-10 -4 -10 -10z"/>
<path d="M2895 1730 c3 -5 8 -10 11 -10 2 0 4 5 4 10 0 6 -5 10 -11 10 -5 0
-7 -4 -4 -10z"/>
<path d="M3124 1716 c-11 -6 -19 -17 -16 -24 3 -9 10 -6 23 9 10 12 19 24 19
26 0 4 0 4 -26 -11z"/>
<path d="M2700 1710 c0 -5 5 -10 11 -10 5 0 7 5 4 10 -3 6 -8 10 -11 10 -2 0
-4 -4 -4 -10z"/>
<path d="M2970 1630 c0 -11 4 -20 9 -20 5 0 7 9 4 20 -3 11 -7 20 -9 20 -2 0
-4 -9 -4 -20z"/>
<path d="M2840 1619 c0 -5 9 -9 20 -9 11 0 20 2 20 4 0 2 -9 6 -20 9 -11 3
-20 1 -20 -4z"/>
<path d="M2928 1623 c7 -3 16 -2 19 1 4 3 -2 6 -13 5 -11 0 -14 -3 -6 -6z"/>
<path d="M2830 1579 c0 -5 5 -7 10 -4 6 3 10 8 10 11 0 2 -4 4 -10 4 -5 0 -10
-5 -10 -11z"/>
<path d="M2890 1580 c-13 -8 -12 -10 3 -10 9 0 17 5 17 10 0 12 -1 12 -20 0z"/>
<path d="M2677 1563 c-10 -9 -9 -23 1 -23 5 0 9 7 9 15 0 17 -1 18 -10 8z"/>
<path d="M2292 1215 c1 -191 6 -341 11 -336 7 7 12 186 7 266 -1 17 -1 109 0
205 2 213 2 210 -10 210 -6 0 -9 -121 -8 -345z"/>
<path d="M2816 1534 c-9 -24 -7 -44 5 -44 6 0 8 9 4 20 -4 11 -2 20 4 20 6 0
11 5 11 10 0 16 -17 12 -24 -6z"/>
<path d="M4790 1476 c0 -38 -3 -45 -22 -49 l-23 -4 23 -2 c21 -1 22 -4 22
-106 0 -63 4 -105 10 -105 6 0 10 56 10 149 0 89 -4 152 -10 156 -6 4 -10 -11
-10 -39z"/>
<path d="M2682 1496 c7 -8 15 -12 17 -11 5 6 -10 25 -20 25 -5 0 -4 -6 3 -14z"/>
<path d="M142 1450 c0 -19 2 -27 5 -17 2 9 2 25 0 35 -3 9 -5 1 -5 -18z"/>
<path d="M2774 1445 c-10 -8 -14 -15 -8 -15 6 0 17 7 24 15 16 19 9 19 -16 0z"/>
<path d="M4658 1393 c7 -3 16 -2 19 1 4 3 -2 6 -13 5 -11 0 -14 -3 -6 -6z"/>
<path d="M315 1360 c-3 -5 1 -10 10 -10 9 0 13 5 10 10 -3 6 -8 10 -10 10 -2
0 -7 -4 -10 -10z"/>
<path d="M2706 1325 c-20 -15 -20 -15 0 -30 25 -19 40 -19 24 0 -7 9 -8 15 -2
15 5 0 12 7 16 15 7 19 -13 19 -38 0z"/>
<path d="M2770 1174 c0 -20 27 -37 36 -23 4 7 3 9 -4 5 -6 -3 -15 2 -21 11 -6
10 -11 13 -11 7z"/>
<path d="M2860 1130 c0 -5 5 -10 10 -10 6 0 10 5 10 10 0 6 -4 10 -10 10 -5 0
-10 -4 -10 -10z"/>
<path d="M4789 1094 c-3 -5 -4 -18 -3 -29 0 -11 2 -49 3 -85 2 -87 21 -60 21
30 0 59 -12 105 -21 84z"/>
<path d="M2880 1045 c-7 -9 -10 -18 -6 -22 3 -3 6 -1 6 6 0 7 4 10 10 6 5 -3
7 -12 4 -19 -3 -8 0 -17 5 -21 6 -3 9 -11 6 -16 -4 -5 -1 -9 5 -9 8 0 10 9 5
28 -4 15 -8 32 -9 39 -4 21 -13 24 -26 8z"/>
<path d="M2930 965 c-7 -9 -8 -15 -2 -15 5 0 12 7 16 15 3 8 4 15 2 15 -2 0
-9 -7 -16 -15z"/>
<path d="M2905 930 c-3 -5 -1 -10 4 -10 6 0 11 5 11 10 0 6 -2 10 -4 10 -3 0
-8 -4 -11 -10z"/>
<path d="M2935 920 c3 -5 1 -10 -4 -10 -7 0 -7 -7 1 -20 11 -17 10 -22 -1 -29
-11 -7 -11 -9 0 -14 10 -4 8 -6 -4 -6 -16 -1 -17 -3 -3 -16 23 -24 26 -19 26
45 0 36 -4 60 -11 60 -5 0 -7 -4 -4 -10z"/>
<path d="M2895 887 c-4 -10 -5 -21 -1 -24 10 -10 18 4 13 24 -4 17 -4 17 -12
0z"/>
<path d="M2851 851 c-8 -5 -9 -11 -3 -15 5 -3 12 1 16 9 6 17 6 18 -13 6z"/>
<path d="M2979 848 c-3 -6 -5 -58 -2 -58 1 0 7 10 14 21 9 17 8 20 -2 14 -9
-6 -11 -3 -6 8 5 13 1 25 -4 15z"/>
<path d="M2875 790 c-3 -6 1 -7 9 -4 18 7 21 14 7 14 -6 0 -13 -4 -16 -10z"/>
<path d="M2933 792 c-8 -5 -10 -17 -5 -37 5 -19 11 -25 16 -17 4 7 5 12 2 12
-3 0 -1 11 4 25 10 26 4 31 -17 17z"/>
<path d="M2896 755 c-3 -8 -1 -15 4 -15 6 0 10 7 10 15 0 8 -2 15 -4 15 -2 0
-6 -7 -10 -15z"/>
<path d="M4760 746 c0 -31 9 -56 21 -56 5 0 9 12 9 26 0 17 -4 23 -12 18 -8
-5 -9 -2 -5 9 3 9 2 19 -3 22 -6 4 -10 -5 -10 -19z"/>
<path d="M2974 743 c4 -9 2 -21 -4 -28 -8 -9 -4 -12 15 -12 13 0 30 6 36 13
10 12 8 13 -6 7 -14 -5 -17 -3 -12 9 4 11 -1 18 -14 21 -16 4 -19 2 -15 -10z"/>
<path d="M2805 740 c-3 -6 1 -7 9 -4 18 7 21 14 7 14 -6 0 -13 -4 -16 -10z"/>
<path d="M210 723 c0 -13 5 -23 10 -23 13 0 13 11 0 30 -8 12 -10 11 -10 -7z"/>
<path d="M2820 720 c-13 -9 -13 -10 0 -10 8 0 22 5 30 10 13 9 13 10 0 10 -8
0 -22 -5 -30 -10z"/>
<path d="M297 703 c-4 -3 -7 -11 -7 -17 0 -6 5 -5 12 2 6 6 9 14 7 17 -3 3 -9
2 -12 -2z"/>
<path d="M3027 696 c-5 -13 0 -16 26 -15 21 1 25 3 12 6 -11 3 -23 10 -26 15
-3 5 -9 3 -12 -6z"/>
<path d="M2797 693 c-11 -10 -8 -35 3 -28 6 4 7 12 3 18 -4 7 1 6 10 -2 19
-15 33 -9 22 8 -7 12 -28 14 -38 4z"/>
<path d="M225 680 c3 -5 8 -10 11 -10 2 0 4 5 4 10 0 6 -5 10 -11 10 -5 0 -7
-4 -4 -10z"/>
<path d="M330 676 c0 -9 5 -16 10 -16 6 0 10 4 10 9 0 6 -4 13 -10 16 -5 3
-10 -1 -10 -9z"/>
<path d="M3055 650 c-3 -5 -1 -10 4 -10 6 0 11 5 11 10 0 6 -2 10 -4 10 -3 0
-8 -4 -11 -10z"/>
<path d="M2770 624 c-8 -16 -16 -32 -18 -36 -4 -8 57 8 67 18 3 3 -8 2 -24 -2
-27 -7 -29 -6 -17 9 8 9 12 21 10 28 -2 6 -10 -2 -18 -17z"/>
<path d="M4395 640 c-3 -5 -2 -10 4 -10 5 0 13 5 16 10 3 6 2 10 -4 10 -5 0
-13 -4 -16 -10z"/>
<path d="M212 620 c0 -14 2 -19 5 -12 2 6 2 18 0 25 -3 6 -5 1 -5 -13z"/>
<path d="M2307 620 c3 -11 7 -20 9 -20 2 0 4 9 4 20 0 11 -4 20 -9 20 -5 0 -7
-9 -4 -20z"/>
<path d="M2970 616 c0 -3 9 -10 20 -16 11 -6 20 -8 20 -6 0 3 -9 10 -20 16
-11 6 -20 8 -20 6z"/>
<path d="M3045 600 c-3 -6 1 -7 9 -4 18 7 21 14 7 14 -6 0 -13 -4 -16 -10z"/>
<path d="M230 589 c0 -5 5 -7 10 -4 6 3 10 8 10 11 0 2 -4 4 -10 4 -5 0 -10
-5 -10 -11z"/>
<path d="M2140 581 c16 -32 12 -43 -12 -35 -13 4 -32 7 -43 6 -25 -1 -65 -46
-66 -75 0 -12 -3 -16 -6 -9 -2 6 -9 10 -14 6 -18 -11 -8 -34 22 -50 17 -8 29
-11 25 -6 -3 5 5 7 19 4 30 -5 32 -18 5 -25 -16 -4 -18 -9 -11 -29 5 -12 14
-22 19 -21 6 1 13 -5 16 -13 4 -11 2 -15 -8 -11 -8 3 -24 -5 -37 -19 -22 -24
-22 -24 -1 -24 11 0 24 5 27 10 5 8 11 8 19 1 7 -6 17 -7 21 -3 5 4 5 -1 2
-11 -4 -9 -2 -17 2 -17 14 0 20 26 10 39 -6 8 -5 8 3 1 15 -12 71 -13 64 -1
-3 4 3 16 14 26 11 10 20 24 20 31 0 8 6 11 15 8 11 -5 15 1 15 26 0 27 -3 31
-21 25 -15 -5 -19 -4 -15 4 4 6 13 11 20 11 21 0 46 35 46 63 0 51 -66 87 -98
55 -9 -9 -12 -5 -12 20 0 28 -3 32 -25 32 -22 0 -24 -3 -15 -19z"/>
<path d="M2855 591 c-3 -5 -2 -12 3 -15 5 -3 9 1 9 9 0 17 -3 19 -12 6z"/>
<path d="M4030 589 c0 -5 5 -7 10 -4 6 3 10 8 10 11 0 2 -4 4 -10 4 -5 0 -10
-5 -10 -11z"/>
<path d="M2820 579 c0 -5 5 -7 10 -4 6 3 10 8 10 11 0 2 -4 4 -10 4 -5 0 -10
-5 -10 -11z"/>
<path d="M4306 573 c-8 -20 -5 -22 15 -14 14 5 15 8 4 18 -10 10 -15 9 -19 -4z"/>
<path d="M4425 579 c-10 -15 3 -25 16 -12 7 7 7 13 1 17 -6 3 -14 1 -17 -5z"/>
<path d="M4595 558 c-10 -18 -23 -36 -28 -39 -5 -4 -10 -20 -11 -37 0 -17 -4
-28 -7 -26 -8 5 -19 -21 -19 -44 0 -8 9 -26 21 -38 12 -12 22 -34 23 -47 0
-14 4 -23 9 -20 17 10 5 -25 -14 -43 l-20 -18 33 -12 c53 -20 132 -17 151 4
21 23 21 32 1 32 -10 0 -14 -5 -10 -16 3 -9 2 -12 -5 -9 -5 4 -15 2 -22 -3
-15 -12 -48 -12 -41 0 3 5 10 6 15 3 5 -4 9 -2 9 4 0 18 -22 24 -31 8 -5 -8
-17 -14 -27 -12 -9 2 -20 4 -24 4 -5 1 -8 6 -8 12 0 6 6 9 12 7 7 -3 18 5 24
16 63 118 79 140 97 129 9 -6 -11 38 -22 47 -10 8 -32 55 -35 73 -2 14 -38 57
-48 57 -2 0 -12 -15 -23 -32z"/>
<path d="M1121 550 c-14 -33 -8 -51 10 -33 6 6 9 23 7 37 l-3 27 -14 -31z"/>
<path d="M2705 525 c-15 -19 -25 -40 -23 -46 2 -6 15 5 28 25 14 20 31 36 38
36 6 0 12 5 12 10 0 22 -30 8 -55 -25z"/>
<path d="M2840 550 c0 -5 5 -10 10 -10 6 0 10 5 10 10 0 6 -4 10 -10 10 -5 0
-10 -4 -10 -10z"/>
<path d="M4768 535 c-6 -30 -3 -43 8 -33 3 4 4 19 2 35 l-3 28 -7 -30z"/>
<path d="M3197 543 c-4 -3 -7 -13 -7 -22 1 -13 3 -13 11 2 11 19 8 33 -4 20z"/>
<path d="M3115 529 c-11 -17 -2 -18 19 -3 17 12 17 14 4 14 -9 0 -20 -5 -23
-11z"/>
<path d="M1083 485 c0 -8 4 -15 9 -15 4 0 8 7 8 15 0 8 -4 15 -8 15 -5 0 -9
-7 -9 -15z"/>
<path d="M4340 493 c-8 -3 -18 -11 -22 -17 -4 -6 -15 -11 -24 -11 -10 0 -19
-6 -21 -13 -3 -7 1 -10 10 -6 10 3 20 -3 27 -16 11 -20 30 -19 30 1 0 6 -4 7
-10 4 -5 -3 -10 4 -10 15 0 19 4 21 28 16 18 -4 22 -4 13 3 -7 5 -10 14 -7 20
8 12 8 12 -14 4z"/>
<path d="M2705 469 c-4 -6 -5 -12 -2 -15 2 -3 7 2 10 11 7 17 1 20 -8 4z"/>
<path d="M4407 454 c-3 -4 1 -13 9 -21 19 -20 26 -13 10 9 -7 10 -16 15 -19
12z"/>
<path d="M3042 441 c-11 -7 -11 -9 2 -14 9 -4 13 -13 10 -22 -7 -17 -34 -21
-34 -4 0 8 -5 8 -15 -1 -8 -7 -13 -16 -10 -20 3 -5 1 -11 -5 -15 -5 -3 -10
-10 -10 -15 0 -5 20 1 45 14 24 13 50 26 57 29 10 4 9 8 -3 18 -9 8 -18 19
-20 26 -3 8 -9 9 -17 4z"/>
<path d="M4351 419 c-19 -26 -20 -28 -3 -18 22 14 46 49 34 49 -5 0 -18 -14
-31 -31z"/>
<path d="M3090 431 c0 -5 5 -13 10 -16 6 -3 10 -2 10 4 0 5 -4 13 -10 16 -5 3
-10 2 -10 -4z"/>
<path d="M4763 426 c-7 -8 -8 -18 -2 -27 14 -22 10 -72 -7 -97 -8 -12 -11 -22
-6 -22 18 0 34 49 31 93 -4 51 6 53 20 4 8 -28 9 -29 10 -7 1 35 -30 73 -46
56z"/>
<path d="M3430 420 c0 -5 5 -10 11 -10 5 0 7 5 4 10 -3 6 -8 10 -11 10 -2 0
-4 -4 -4 -10z"/>
<path d="M4396 413 c4 -19 2 -22 -13 -16 -12 4 -10 0 7 -14 32 -27 35 -23 16
18 -9 19 -13 24 -10 12z"/>
<path d="M1506 408 c3 -5 10 -6 15 -3 13 9 11 12 -6 12 -8 0 -12 -4 -9 -9z"/>
<path d="M3230 409 c0 -5 5 -7 10 -4 6 3 10 8 10 11 0 2 -4 4 -10 4 -5 0 -10
-5 -10 -11z"/>
<path d="M4278 413 c7 -3 16 -2 19 1 4 3 -2 6 -13 5 -11 0 -14 -3 -6 -6z"/>
<path d="M1580 399 c0 -5 5 -7 10 -4 6 3 10 8 10 11 0 2 -4 4 -10 4 -5 0 -10
-5 -10 -11z"/>
<path d="M1855 400 c-3 -5 -1 -10 4 -10 6 0 11 5 11 10 0 6 -2 10 -4 10 -3 0
-8 -4 -11 -10z"/>
<path d="M3370 395 c-11 -13 -9 -15 11 -12 12 2 25 9 27 15 5 17 -23 15 -38
-3z"/>
<path d="M4505 400 c3 -5 8 -10 11 -10 2 0 4 5 4 10 0 6 -5 10 -11 10 -5 0 -7
-4 -4 -10z"/>
<path d="M1490 390 c0 -5 5 -10 11 -10 5 0 7 5 4 10 -3 6 -8 10 -11 10 -2 0
-4 -4 -4 -10z"/>
<path d="M3251 381 c-8 -15 -7 -20 6 -26 15 -5 15 -7 3 -15 -9 -6 -10 -10 -3
-10 18 0 27 21 13 30 -17 10 -14 23 7 31 16 7 16 8 1 8 -10 1 -22 -8 -27 -18z"/>
<path d="M4230 390 c0 -5 7 -7 15 -4 8 4 15 8 15 10 0 2 -7 4 -15 4 -8 0 -15
-4 -15 -10z"/>
<path d="M4430 394 c0 -7 9 -22 21 -35 16 -19 18 -20 10 -4 -17 34 -31 51 -31
39z"/>
<path d="M3523 375 c0 -8 4 -15 9 -15 4 0 8 4 8 9 0 6 -4 12 -8 15 -5 3 -9 -1
-9 -9z"/>
<path d="M650 370 c8 -5 20 -10 25 -10 6 0 3 5 -5 10 -8 5 -19 10 -25 10 -5 0
-3 -5 5 -10z"/>
<path d="M3435 370 c-3 -5 -12 -7 -20 -3 -8 3 -15 0 -15 -6 0 -6 7 -11 15 -11
8 0 15 -5 15 -12 0 -17 10 -4 15 21 4 22 0 27 -10 11z"/>
<path d="M4276 365 c4 -8 8 -15 10 -15 2 0 4 7 4 15 0 8 -4 15 -10 15 -5 0 -7
-7 -4 -15z"/>
<path d="M4470 370 c0 -5 5 -10 11 -10 5 0 7 5 4 10 -3 6 -8 10 -11 10 -2 0
-4 -4 -4 -10z"/>
<path d="M3464 359 c-3 -6 0 -15 7 -20 19 -12 29 -11 29 1 0 6 -5 10 -11 10
-5 0 -7 5 -4 10 3 6 2 10 -4 10 -5 0 -13 -5 -17 -11z"/>
<path d="M4300 361 c0 -5 7 -12 16 -15 8 -3 13 -10 10 -14 -3 -5 1 -17 8 -27
10 -14 15 -15 21 -5 5 8 4 11 -3 6 -15 -9 -21 15 -9 39 5 11 6 17 2 13 -4 -4
-16 -3 -26 3 -11 6 -19 6 -19 0z"/>
<path d="M1780 345 c-11 -13 -10 -14 4 -9 9 3 16 10 16 15 0 13 -6 11 -20 -6z"/>
<path d="M1890 345 c-14 -17 -35 -21 -25 -5 3 6 -1 7 -9 4 -9 -3 -16 -10 -16
-15 0 -5 -13 -9 -30 -9 -16 0 -30 -4 -30 -10 0 -13 47 -13 55 0 4 6 11 8 16 4
5 -3 23 6 40 20 17 14 26 26 21 26 -5 0 -15 -7 -22 -15z"/>
<path d="M4404 341 c20 -22 26 -25 26 -13 0 4 -10 13 -22 21 -23 14 -23 14 -4
-8z"/>
<path d="M1912 334 c-26 -18 -21 -35 10 -29 23 5 37 15 20 15 -6 0 -9 7 -6 15
8 19 4 19 -24 -1z"/>
<path d="M2237 330 c-9 -11 -13 -20 -7 -20 5 0 14 9 20 20 6 11 9 20 8 20 -2
0 -11 -9 -21 -20z"/>
<path d="M3360 343 c0 -5 12 -9 27 -10 19 -1 22 1 12 8 -17 11 -39 12 -39 2z"/>
<path d="M3980 342 c0 -4 10 -9 22 -9 18 -2 20 0 8 7 -18 12 -30 13 -30 2z"/>
<path d="M2315 329 c4 -5 -1 -19 -11 -30 -9 -10 -12 -19 -6 -19 12 0 32 31 32
49 0 6 -5 11 -11 11 -5 0 -7 -5 -4 -11z"/>
<path d="M704 313 c7 -13 3 -15 -46 -16 -15 -1 -24 -5 -22 -9 6 -9 71 -4 81 6
4 3 1 12 -7 19 -10 9 -11 9 -6 0z"/>
<path d="M1560 300 c-11 -7 -4 -10 25 -9 31 0 36 2 20 9 -26 11 -28 11 -45 0z"/>
<path d="M1630 300 c0 -5 5 -10 11 -10 5 0 7 5 4 10 -3 6 -8 10 -11 10 -2 0
-4 -4 -4 -10z"/>
<path d="M2257 292 c-16 -18 -14 -32 6 -32 5 0 7 6 4 14 -3 7 0 19 6 25 6 6 9
11 6 11 -3 0 -13 -8 -22 -18z"/>
<path d="M1503 293 c9 -2 23 -2 30 0 6 3 -1 5 -18 5 -16 0 -22 -2 -12 -5z"/>
<path d="M214 263 c17 -18 37 -33 45 -32 14 0 14 1 1 6 -8 3 -28 17 -45 32
l-30 26 29 -32z"/>
<path d="M2062 265 l-23 -12 26 -5 c14 -3 28 -1 31 3 3 5 0 9 -6 9 -6 0 -8 5
-5 10 7 12 7 12 -23 -5z"/>
<path d="M4421 269 c-1 -9 -17 -20 -38 -26 l-38 -11 40 5 c48 7 48 7 42 30 -3
13 -5 14 -6 2z"/>
<path d="M2150 260 c0 -6 -10 -15 -22 -21 -19 -8 -17 -9 15 -5 20 3 37 1 37
-5 0 -5 9 -9 20 -9 11 0 20 5 20 11 0 8 12 10 34 6 21 -3 39 -1 45 6 7 9 0 11
-31 9 -27 -3 -43 0 -49 9 -6 10 -9 8 -9 -8 0 -13 -4 -23 -10 -23 -5 0 -10 3
-10 8 0 4 -9 13 -20 20 -13 7 -20 8 -20 2z"/>
<path d="M182 244 c10 -10 20 -15 24 -12 3 4 -5 12 -18 18 -22 12 -22 12 -6
-6z"/>
<path d="M1927 249 c7 -7 15 -10 18 -7 3 3 -2 9 -12 12 -14 6 -15 5 -6 -5z"/>
<path d="M4760 245 c-8 -9 -8 -15 -2 -15 12 0 26 19 19 26 -2 2 -10 -2 -17
-11z"/>
<path d="M1735 240 c-22 -4 -33 -8 -25 -10 62 -11 144 -4 134 11 -6 10 -49 10
-109 -1z"/>
<path d="M1867 238 c6 -11 31 -10 37 1 3 5 -5 8 -18 7 -13 0 -22 -4 -19 -8z"/>
<path d="M1518 223 c12 -2 30 -2 40 0 9 3 -1 5 -23 4 -22 0 -30 -2 -17 -4z"/>
<path d="M2355 199 c-19 -19 -38 -19 -1083 -19 -585 1 -1066 -1 -1069 -4 -20
-20 169 -24 1102 -25 l1030 -2 23 21 c12 11 22 27 22 35 0 18 -1 18 -25 -6z"/>
<path d="M4821 199 c-23 -19 -46 -20 -1035 -19 -1240 1 -1126 2 -1101 -13 15
-9 267 -13 1076 -15 l1056 -3 17 26 c23 35 16 48 -13 24z"/>
</g>
</svg>
